<mxfile host="app.diagrams.net" modified="2024-03-25T06:17:05.235Z" agent="Mozilla/5.0 (Windows NT 10.0; Win64; x64) AppleWebKit/537.36 (KHTML, like Gecko) Chrome/123.0.0.0 Safari/537.36" etag="6jw28_ckJ2k3qx_hGKXq" version="24.0.7" type="device">
  <diagram name="Page-1" id="sRAOzv1-SrzgYGDRrwIv">
    <mxGraphModel dx="5385" dy="2130" grid="1" gridSize="10" guides="1" tooltips="1" connect="1" arrows="1" fold="1" page="1" pageScale="1" pageWidth="850" pageHeight="1100" math="0" shadow="0">
      <root>
        <mxCell id="0" />
        <mxCell id="1" parent="0" />
        <mxCell id="vjPqMA_wrzbos5oN6_ES-1" value="&lt;br&gt;&lt;span data-meta=&quot;&lt;--(miro-data-v1)tl2kroutqq+gnq+gn111oZynrqBnXZ2qnK2fhJ9ddV2wk6WRiaWsjYqxnnhdZ12fnK+cXXW2XaqdpaCer65ddZa2XbKkn6Kgr3+cr5xddbZdpa6qqV11tl2upLWgXXW2XbKkn6+jXXVscm9yaWtvb2tucHR0cW90bGddo6CkoqOvXXVscWtuaW10dHBzbXN0b25ub7hnXZqrqq6kr6SqqV11tl2qoaGuoK+Ls111tl2zXXVrZ120XXVruLhnXa6enKegXXW2Xa6enKegXXVsuGddraCnnK+ksaCOnpynoF11bGddraqvnK+kqqlddbZdraqvnK+kqqlddWu4Z12toKecr6SxoI2qr5yvpKqpXXVrZ12aq5ytoKmvXXWpsKenZ12voLOvXXVdd6t5fIuLrmqIqp+wp6Cud2qreV1nXa6vtKegXXVdtpddrq+XXXVuZ5ddrq6XXXVtZ5ddrp6XXXVscmxrcWxzZ5ddnZ6XXXVobGeXXZ2ql111bGeXXZ2tnpdddWxybGtxbHNnl12drbKXXXVta2eXXZ2tqpdddWxnl12dra6XXXVtZ5ddoaGpl111l12Kq6CpjpyprpddZ5ddr56XXXVscmxrcWxzZ5ddr66el111bGeXXa+cl111l12el11nl12vnLGXXXWXXaiXXWeXXaGul111bW5tZ5ddnZdddWtnl12kl111a2eXXbCXXXVrZ5ddrpdddWtnl12drp6XXXVsZ5ddkYCNl111bWlsZ5ddo6eXXXVruF1nXa6jnKugXXVdbl24Z12vtKugXXVdrqOcq6BduGddr7SroF11bG9nXaSfXXVrZ12kqaSvpJynhJ9ddV1ub3BzcnFvcHNua3Fsb210cm9sXbiYZ12ooK+cXXW2uLhnXbGgra6kqqlddW1nXaOqrq9ddV2opK2qaZ6qqF24(/miro-data-v1)--&gt;&quot;&gt;&lt;/span&gt;&lt;div&gt;&lt;div&gt;&lt;div&gt;Application/Modules&lt;/div&gt;&lt;/div&gt;&lt;/div&gt;" style="rounded=0;whiteSpace=wrap;html=1;fillColor=#e1d5e7;strokeColor=#9673a6;" parent="1" vertex="1">
          <mxGeometry x="-10" y="50" width="120" height="50" as="geometry" />
        </mxCell>
        <mxCell id="h8NzQWRy3qLN9IKDoXhu-1" value="" style="endArrow=classic;html=1;rounded=0;exitX=1;exitY=0.5;exitDx=0;exitDy=0;" parent="1" source="vjPqMA_wrzbos5oN6_ES-1" target="h8NzQWRy3qLN9IKDoXhu-2" edge="1">
          <mxGeometry width="50" height="50" relative="1" as="geometry">
            <mxPoint x="270" y="90" as="sourcePoint" />
            <mxPoint x="320" y="75" as="targetPoint" />
          </mxGeometry>
        </mxCell>
        <mxCell id="h8NzQWRy3qLN9IKDoXhu-4" value="" style="edgeStyle=orthogonalEdgeStyle;rounded=0;orthogonalLoop=1;jettySize=auto;html=1;" parent="1" source="h8NzQWRy3qLN9IKDoXhu-2" target="h8NzQWRy3qLN9IKDoXhu-3" edge="1">
          <mxGeometry relative="1" as="geometry" />
        </mxCell>
        <mxCell id="h8NzQWRy3qLN9IKDoXhu-2" value="Registering for Approvals&lt;div&gt;1.Generic&lt;/div&gt;&lt;div&gt;2.Form&lt;/div&gt;" style="rounded=1;whiteSpace=wrap;html=1;" parent="1" vertex="1">
          <mxGeometry x="220" y="45" width="120" height="60" as="geometry" />
        </mxCell>
        <mxCell id="h8NzQWRy3qLN9IKDoXhu-9" value="" style="edgeStyle=orthogonalEdgeStyle;rounded=0;orthogonalLoop=1;jettySize=auto;html=1;" parent="1" source="h8NzQWRy3qLN9IKDoXhu-3" target="h8NzQWRy3qLN9IKDoXhu-8" edge="1">
          <mxGeometry relative="1" as="geometry" />
        </mxCell>
        <mxCell id="h8NzQWRy3qLN9IKDoXhu-12" value="" style="edgeStyle=orthogonalEdgeStyle;rounded=0;orthogonalLoop=1;jettySize=auto;html=1;" parent="1" source="h8NzQWRy3qLN9IKDoXhu-3" target="h8NzQWRy3qLN9IKDoXhu-11" edge="1">
          <mxGeometry relative="1" as="geometry" />
        </mxCell>
        <mxCell id="h8NzQWRy3qLN9IKDoXhu-19" value="" style="edgeStyle=orthogonalEdgeStyle;rounded=0;orthogonalLoop=1;jettySize=auto;html=1;entryX=0.5;entryY=0;entryDx=0;entryDy=0;exitX=1;exitY=0.5;exitDx=0;exitDy=0;" parent="1" source="h8NzQWRy3qLN9IKDoXhu-3" target="h8NzQWRy3qLN9IKDoXhu-20" edge="1">
          <mxGeometry relative="1" as="geometry">
            <mxPoint x="580" y="30" as="sourcePoint" />
            <mxPoint x="790" y="10" as="targetPoint" />
            <Array as="points">
              <mxPoint x="635" y="75" />
              <mxPoint x="635" />
              <mxPoint x="770" />
            </Array>
          </mxGeometry>
        </mxCell>
        <mxCell id="h8NzQWRy3qLN9IKDoXhu-21" style="edgeStyle=orthogonalEdgeStyle;rounded=0;orthogonalLoop=1;jettySize=auto;html=1;entryX=0.5;entryY=1;entryDx=0;entryDy=0;" parent="1" source="h8NzQWRy3qLN9IKDoXhu-3" target="h8NzQWRy3qLN9IKDoXhu-20" edge="1">
          <mxGeometry relative="1" as="geometry">
            <Array as="points">
              <mxPoint x="635" y="75" />
              <mxPoint x="635" y="160" />
              <mxPoint x="770" y="160" />
            </Array>
          </mxGeometry>
        </mxCell>
        <mxCell id="h8NzQWRy3qLN9IKDoXhu-3" value="Status" style="rhombus;whiteSpace=wrap;html=1;rounded=1;" parent="1" vertex="1">
          <mxGeometry x="480" y="35" width="80" height="80" as="geometry" />
        </mxCell>
        <mxCell id="h8NzQWRy3qLN9IKDoXhu-7" value="Approved" style="text;html=1;align=center;verticalAlign=middle;whiteSpace=wrap;rounded=0;" parent="1" vertex="1">
          <mxGeometry x="660" y="5" width="60" height="30" as="geometry" />
        </mxCell>
        <mxCell id="h8NzQWRy3qLN9IKDoXhu-25" style="edgeStyle=orthogonalEdgeStyle;rounded=0;orthogonalLoop=1;jettySize=auto;html=1;entryX=0.5;entryY=1;entryDx=0;entryDy=0;exitX=1;exitY=0.5;exitDx=0;exitDy=0;" parent="1" source="h8NzQWRy3qLN9IKDoXhu-8" target="h8NzQWRy3qLN9IKDoXhu-24" edge="1">
          <mxGeometry relative="1" as="geometry" />
        </mxCell>
        <mxCell id="h8NzQWRy3qLN9IKDoXhu-8" value="Send update Rejected" style="whiteSpace=wrap;html=1;rounded=1;fillColor=#a20025;fontColor=#ffffff;strokeColor=#6F0000;" parent="1" vertex="1">
          <mxGeometry x="460" y="205" width="120" height="60" as="geometry" />
        </mxCell>
        <mxCell id="h8NzQWRy3qLN9IKDoXhu-10" value="Rejected" style="text;html=1;align=center;verticalAlign=middle;whiteSpace=wrap;rounded=0;" parent="1" vertex="1">
          <mxGeometry x="520" y="140" width="60" height="30" as="geometry" />
        </mxCell>
        <mxCell id="h8NzQWRy3qLN9IKDoXhu-27" style="edgeStyle=orthogonalEdgeStyle;rounded=0;orthogonalLoop=1;jettySize=auto;html=1;entryX=0.5;entryY=0;entryDx=0;entryDy=0;" parent="1" source="h8NzQWRy3qLN9IKDoXhu-11" target="h8NzQWRy3qLN9IKDoXhu-24" edge="1">
          <mxGeometry relative="1" as="geometry" />
        </mxCell>
        <mxCell id="h8NzQWRy3qLN9IKDoXhu-11" value="Send Update Time Elapsed" style="whiteSpace=wrap;html=1;rounded=1;fillColor=#f8cecc;strokeColor=#b85450;" parent="1" vertex="1">
          <mxGeometry x="460" y="-115" width="120" height="60" as="geometry" />
        </mxCell>
        <mxCell id="h8NzQWRy3qLN9IKDoXhu-13" value="Time Elapsed" style="text;html=1;align=center;verticalAlign=middle;whiteSpace=wrap;rounded=0;" parent="1" vertex="1">
          <mxGeometry x="520" y="-20" width="60" height="30" as="geometry" />
        </mxCell>
        <mxCell id="h8NzQWRy3qLN9IKDoXhu-26" style="edgeStyle=orthogonalEdgeStyle;rounded=0;orthogonalLoop=1;jettySize=auto;html=1;" parent="1" source="h8NzQWRy3qLN9IKDoXhu-20" target="h8NzQWRy3qLN9IKDoXhu-24" edge="1">
          <mxGeometry relative="1" as="geometry" />
        </mxCell>
        <mxCell id="h8NzQWRy3qLN9IKDoXhu-20" value="Send Update Approved" style="whiteSpace=wrap;html=1;rounded=1;fillColor=#008a00;fontColor=#ffffff;strokeColor=#005700;" parent="1" vertex="1">
          <mxGeometry x="710" y="55" width="120" height="60" as="geometry" />
        </mxCell>
        <mxCell id="h8NzQWRy3qLN9IKDoXhu-22" value="Auto-Approved" style="text;html=1;align=center;verticalAlign=middle;whiteSpace=wrap;rounded=0;" parent="1" vertex="1">
          <mxGeometry x="660" y="120" width="90" height="30" as="geometry" />
        </mxCell>
        <mxCell id="h8NzQWRy3qLN9IKDoXhu-24" value="&lt;br&gt;&lt;span data-meta=&quot;&lt;--(miro-data-v1)tl2kroutqq+gnq+gn111oZynrqBnXZ2qnK2fhJ9ddV2wk6WRiaWsjYqxnnhdZ12fnK+cXXW2XaqdpaCer65ddZa2XbKkn6Kgr3+cr5xddbZdpa6qqV11tl2upLWgXXW2XbKkn6+jXXVscm9yaWtvb2tucHR0cW90bGddo6CkoqOvXXVscWtuaW10dHBzbXN0b25ub7hnXZqrqq6kr6SqqV11tl2qoaGuoK+Ls111tl2zXXVrZ120XXVruLhnXa6enKegXXW2Xa6enKegXXVsuGddraCnnK+ksaCOnpynoF11bGddraqvnK+kqqlddbZdraqvnK+kqqlddWu4Z12toKecr6SxoI2qr5yvpKqpXXVrZ12aq5ytoKmvXXWpsKenZ12voLOvXXVdd6t5fIuLrmqIqp+wp6Cud2qreV1nXa6vtKegXXVdtpddrq+XXXVuZ5ddrq6XXXVtZ5ddrp6XXXVscmxrcWxzZ5ddnZ6XXXVobGeXXZ2ql111bGeXXZ2tnpdddWxybGtxbHNnl12drbKXXXVta2eXXZ2tqpdddWxnl12dra6XXXVtZ5ddoaGpl111l12Kq6CpjpyprpddZ5ddr56XXXVscmxrcWxzZ5ddr66el111bGeXXa+cl111l12el11nl12vnLGXXXWXXaiXXWeXXaGul111bW5tZ5ddnZdddWtnl12kl111a2eXXbCXXXVrZ5ddrpdddWtnl12drp6XXXVsZ5ddkYCNl111bWlsZ5ddo6eXXXVruF1nXa6jnKugXXVdbl24Z12vtKugXXVdrqOcq6BduGddr7SroF11bG9nXaSfXXVrZ12kqaSvpJynhJ9ddV1ub3BzcnFvcHNua3Fsb210cm9sXbiYZ12ooK+cXXW2uLhnXbGgra6kqqlddW1nXaOqrq9ddV2opK2qaZ6qqF24(/miro-data-v1)--&gt;&quot;&gt;&lt;/span&gt;&lt;div&gt;&lt;div&gt;&lt;div&gt;APPs/Modules&lt;/div&gt;&lt;/div&gt;&lt;/div&gt;" style="rounded=0;whiteSpace=wrap;html=1;fillColor=#e1d5e7;strokeColor=#9673a6;" parent="1" vertex="1">
          <mxGeometry x="980" y="60" width="100" height="50" as="geometry" />
        </mxCell>
        <mxCell id="h8NzQWRy3qLN9IKDoXhu-30" value="Response&lt;div&gt;/status&lt;/div&gt;" style="text;html=1;align=center;verticalAlign=middle;whiteSpace=wrap;rounded=0;" parent="1" vertex="1">
          <mxGeometry x="900" y="190" width="90" height="50" as="geometry" />
        </mxCell>
        <mxCell id="h8NzQWRy3qLN9IKDoXhu-34" value="&lt;br&gt;&lt;span data-meta=&quot;&lt;--(miro-data-v1)tl2kroutqq+gnq+gn111oZynrqBnXZ2qnK2fhJ9ddV2wk6WRiaWsjYqxnnhdZ12fnK+cXXW2XaqdpaCer65ddZa2XbKkn6Kgr3+cr5xddbZdpa6qqV11tl2upLWgXXW2XbKkn6+jXXVscm9yaWtvb2tucHR0cW90bGddo6CkoqOvXXVscWtuaW10dHBzbXN0b25ub7hnXZqrqq6kr6SqqV11tl2qoaGuoK+Ls111tl2zXXVrZ120XXVruLhnXa6enKegXXW2Xa6enKegXXVsuGddraCnnK+ksaCOnpynoF11bGddraqvnK+kqqlddbZdraqvnK+kqqlddWu4Z12toKecr6SxoI2qr5yvpKqpXXVrZ12aq5ytoKmvXXWpsKenZ12voLOvXXVdd6t5fIuLrmqIqp+wp6Cud2qreV1nXa6vtKegXXVdtpddrq+XXXVuZ5ddrq6XXXVtZ5ddrp6XXXVscmxrcWxzZ5ddnZ6XXXVobGeXXZ2ql111bGeXXZ2tnpdddWxybGtxbHNnl12drbKXXXVta2eXXZ2tqpdddWxnl12dra6XXXVtZ5ddoaGpl111l12Kq6CpjpyprpddZ5ddr56XXXVscmxrcWxzZ5ddr66el111bGeXXa+cl111l12el11nl12vnLGXXXWXXaiXXWeXXaGul111bW5tZ5ddnZdddWtnl12kl111a2eXXbCXXXVrZ5ddrpdddWtnl12drp6XXXVsZ5ddkYCNl111bWlsZ5ddo6eXXXVruF1nXa6jnKugXXVdbl24Z12vtKugXXVdrqOcq6BduGddr7SroF11bG9nXaSfXXVrZ12kqaSvpJynhJ9ddV1ub3BzcnFvcHNua3Fsb210cm9sXbiYZ12ooK+cXXW2uLhnXbGgra6kqqlddW1nXaOqrq9ddV2opK2qaZ6qqF24(/miro-data-v1)--&gt;&quot;&gt;&lt;/span&gt;&lt;div&gt;&lt;div&gt;&lt;div&gt;APPs/Modules&lt;/div&gt;&lt;/div&gt;&lt;/div&gt;" style="rounded=0;whiteSpace=wrap;html=1;fillColor=#e1d5e7;strokeColor=#9673a6;" parent="1" vertex="1">
          <mxGeometry y="665" width="100" height="50" as="geometry" />
        </mxCell>
        <mxCell id="h8NzQWRy3qLN9IKDoXhu-35" value="" style="endArrow=classic;html=1;rounded=0;exitX=1;exitY=0.5;exitDx=0;exitDy=0;" parent="1" source="h8NzQWRy3qLN9IKDoXhu-34" target="h8NzQWRy3qLN9IKDoXhu-38" edge="1">
          <mxGeometry width="50" height="50" relative="1" as="geometry">
            <mxPoint x="340" y="705" as="sourcePoint" />
            <mxPoint x="390" y="690" as="targetPoint" />
          </mxGeometry>
        </mxCell>
        <mxCell id="h8NzQWRy3qLN9IKDoXhu-36" value="" style="edgeStyle=orthogonalEdgeStyle;rounded=0;orthogonalLoop=1;jettySize=auto;html=1;" parent="1" source="h8NzQWRy3qLN9IKDoXhu-38" target="h8NzQWRy3qLN9IKDoXhu-43" edge="1">
          <mxGeometry relative="1" as="geometry" />
        </mxCell>
        <mxCell id="h8NzQWRy3qLN9IKDoXhu-38" value="Registering for Task" style="rounded=1;whiteSpace=wrap;html=1;" parent="1" vertex="1">
          <mxGeometry x="240" y="660" width="120" height="60" as="geometry" />
        </mxCell>
        <mxCell id="h8NzQWRy3qLN9IKDoXhu-40" value="" style="edgeStyle=orthogonalEdgeStyle;rounded=0;orthogonalLoop=1;jettySize=auto;html=1;" parent="1" source="h8NzQWRy3qLN9IKDoXhu-43" target="h8NzQWRy3qLN9IKDoXhu-49" edge="1">
          <mxGeometry relative="1" as="geometry" />
        </mxCell>
        <mxCell id="h8NzQWRy3qLN9IKDoXhu-41" value="" style="edgeStyle=orthogonalEdgeStyle;rounded=0;orthogonalLoop=1;jettySize=auto;html=1;entryX=0.007;entryY=0.543;entryDx=0;entryDy=0;exitX=1;exitY=0.5;exitDx=0;exitDy=0;entryPerimeter=0;" parent="1" target="h8NzQWRy3qLN9IKDoXhu-53" edge="1">
          <mxGeometry relative="1" as="geometry">
            <mxPoint x="600" y="687.5" as="sourcePoint" />
            <mxPoint x="750" y="682.5" as="targetPoint" />
            <Array as="points" />
          </mxGeometry>
        </mxCell>
        <mxCell id="h8NzQWRy3qLN9IKDoXhu-43" value="Status" style="rhombus;whiteSpace=wrap;html=1;rounded=1;" parent="1" vertex="1">
          <mxGeometry x="550" y="650" width="80" height="80" as="geometry" />
        </mxCell>
        <mxCell id="h8NzQWRy3qLN9IKDoXhu-44" value="Completed" style="text;html=1;align=center;verticalAlign=middle;whiteSpace=wrap;rounded=0;" parent="1" vertex="1">
          <mxGeometry x="710" y="655" width="60" height="30" as="geometry" />
        </mxCell>
        <mxCell id="h8NzQWRy3qLN9IKDoXhu-48" style="edgeStyle=orthogonalEdgeStyle;rounded=0;orthogonalLoop=1;jettySize=auto;html=1;entryX=0.5;entryY=0;entryDx=0;entryDy=0;" parent="1" source="h8NzQWRy3qLN9IKDoXhu-49" target="h8NzQWRy3qLN9IKDoXhu-55" edge="1">
          <mxGeometry relative="1" as="geometry" />
        </mxCell>
        <mxCell id="h8NzQWRy3qLN9IKDoXhu-49" value="Send Update Time Elapsed" style="whiteSpace=wrap;html=1;rounded=1;fillColor=#f8cecc;strokeColor=#b85450;" parent="1" vertex="1">
          <mxGeometry x="530" y="500" width="120" height="60" as="geometry" />
        </mxCell>
        <mxCell id="h8NzQWRy3qLN9IKDoXhu-50" value="Time Elapsed" style="text;html=1;align=center;verticalAlign=middle;whiteSpace=wrap;rounded=0;" parent="1" vertex="1">
          <mxGeometry x="590" y="595" width="60" height="30" as="geometry" />
        </mxCell>
        <mxCell id="h8NzQWRy3qLN9IKDoXhu-52" style="edgeStyle=orthogonalEdgeStyle;rounded=0;orthogonalLoop=1;jettySize=auto;html=1;" parent="1" source="h8NzQWRy3qLN9IKDoXhu-53" target="h8NzQWRy3qLN9IKDoXhu-55" edge="1">
          <mxGeometry relative="1" as="geometry" />
        </mxCell>
        <mxCell id="h8NzQWRy3qLN9IKDoXhu-53" value="Send Update Completed" style="whiteSpace=wrap;html=1;rounded=1;fillColor=#008a00;fontColor=#ffffff;strokeColor=#005700;" parent="1" vertex="1">
          <mxGeometry x="780" y="655" width="120" height="60" as="geometry" />
        </mxCell>
        <mxCell id="h8NzQWRy3qLN9IKDoXhu-55" value="&lt;br&gt;&lt;span data-meta=&quot;&lt;--(miro-data-v1)tl2kroutqq+gnq+gn111oZynrqBnXZ2qnK2fhJ9ddV2wk6WRiaWsjYqxnnhdZ12fnK+cXXW2XaqdpaCer65ddZa2XbKkn6Kgr3+cr5xddbZdpa6qqV11tl2upLWgXXW2XbKkn6+jXXVscm9yaWtvb2tucHR0cW90bGddo6CkoqOvXXVscWtuaW10dHBzbXN0b25ub7hnXZqrqq6kr6SqqV11tl2qoaGuoK+Ls111tl2zXXVrZ120XXVruLhnXa6enKegXXW2Xa6enKegXXVsuGddraCnnK+ksaCOnpynoF11bGddraqvnK+kqqlddbZdraqvnK+kqqlddWu4Z12toKecr6SxoI2qr5yvpKqpXXVrZ12aq5ytoKmvXXWpsKenZ12voLOvXXVdd6t5fIuLrmqIqp+wp6Cud2qreV1nXa6vtKegXXVdtpddrq+XXXVuZ5ddrq6XXXVtZ5ddrp6XXXVscmxrcWxzZ5ddnZ6XXXVobGeXXZ2ql111bGeXXZ2tnpdddWxybGtxbHNnl12drbKXXXVta2eXXZ2tqpdddWxnl12dra6XXXVtZ5ddoaGpl111l12Kq6CpjpyprpddZ5ddr56XXXVscmxrcWxzZ5ddr66el111bGeXXa+cl111l12el11nl12vnLGXXXWXXaiXXWeXXaGul111bW5tZ5ddnZdddWtnl12kl111a2eXXbCXXXVrZ5ddrpdddWtnl12drp6XXXVsZ5ddkYCNl111bWlsZ5ddo6eXXXVruF1nXa6jnKugXXVdbl24Z12vtKugXXVdrqOcq6BduGddr7SroF11bG9nXaSfXXVrZ12kqaSvpJynhJ9ddV1ub3BzcnFvcHNua3Fsb210cm9sXbiYZ12ooK+cXXW2uLhnXbGgra6kqqlddW1nXaOqrq9ddV2opK2qaZ6qqF24(/miro-data-v1)--&gt;&quot;&gt;&lt;/span&gt;&lt;div&gt;&lt;div&gt;&lt;div&gt;APPs/Modules&lt;/div&gt;&lt;/div&gt;&lt;/div&gt;" style="rounded=0;whiteSpace=wrap;html=1;fillColor=#e1d5e7;strokeColor=#9673a6;" parent="1" vertex="1">
          <mxGeometry x="1050" y="660" width="100" height="50" as="geometry" />
        </mxCell>
        <mxCell id="h8NzQWRy3qLN9IKDoXhu-57" value="Response" style="text;html=1;align=center;verticalAlign=middle;whiteSpace=wrap;rounded=0;" parent="1" vertex="1">
          <mxGeometry x="950" y="660" width="60" height="30" as="geometry" />
        </mxCell>
        <mxCell id="h8NzQWRy3qLN9IKDoXhu-58" value="Response" style="text;html=1;align=center;verticalAlign=middle;whiteSpace=wrap;rounded=0;" parent="1" vertex="1">
          <mxGeometry x="980" y="500" width="60" height="30" as="geometry" />
        </mxCell>
        <mxCell id="h8NzQWRy3qLN9IKDoXhu-61" value="Assigned" style="text;html=1;align=center;verticalAlign=middle;whiteSpace=wrap;rounded=0;" parent="1" vertex="1">
          <mxGeometry x="440" y="655" width="60" height="30" as="geometry" />
        </mxCell>
        <mxCell id="h8NzQWRy3qLN9IKDoXhu-63" value="Register for Approval&lt;div&gt;(request_Id)&lt;/div&gt;&lt;div&gt;/reg-apprvl&lt;/div&gt;" style="text;html=1;align=center;verticalAlign=middle;whiteSpace=wrap;rounded=0;" parent="1" vertex="1">
          <mxGeometry x="110" y="-20" width="100" height="70" as="geometry" />
        </mxCell>
        <mxCell id="h8NzQWRy3qLN9IKDoXhu-65" value="Response&lt;div&gt;/status&lt;/div&gt;" style="text;html=1;align=center;verticalAlign=middle;whiteSpace=wrap;rounded=0;" parent="1" vertex="1">
          <mxGeometry x="870" y="35" width="90" height="50" as="geometry" />
        </mxCell>
        <mxCell id="h8NzQWRy3qLN9IKDoXhu-66" value="Response&lt;div&gt;/status&lt;/div&gt;" style="text;html=1;align=center;verticalAlign=middle;whiteSpace=wrap;rounded=0;" parent="1" vertex="1">
          <mxGeometry x="930" y="-130" width="90" height="50" as="geometry" />
        </mxCell>
        <mxCell id="h8NzQWRy3qLN9IKDoXhu-71" value="" style="whiteSpace=wrap;html=1;aspect=fixed;" parent="1" vertex="1">
          <mxGeometry x="-3100" y="-640" width="3070" height="3070" as="geometry" />
        </mxCell>
        <mxCell id="h8NzQWRy3qLN9IKDoXhu-72" value="&lt;b&gt;&lt;font style=&quot;font-size: 19px;&quot;&gt;/reg-apprvls/generic&lt;/font&gt;&lt;/b&gt;&lt;div&gt;&lt;br&gt;&lt;/div&gt;&lt;div&gt;registered-Id: ${}&lt;/div&gt;&lt;div&gt;requested_By:&lt;span style=&quot;background-color: initial;&quot;&gt;${}&lt;/span&gt;&lt;br&gt;&lt;/div&gt;&lt;div&gt;&lt;div&gt;type_Id:&amp;nbsp;&lt;span style=&quot;background-color: initial;&quot;&gt;${&lt;/span&gt;&lt;span style=&quot;background-color: initial;&quot;&gt;Generic}&lt;/span&gt;&lt;/div&gt;&lt;/div&gt;&lt;div&gt;req_apprvl_details:&lt;/div&gt;&lt;div&gt;&lt;span style=&quot;white-space: pre;&quot;&gt;&#x9;&lt;/span&gt;{&lt;/div&gt;&lt;div style=&quot;&quot;&gt;&lt;span style=&quot;white-space: pre;&quot;&gt;&lt;span style=&quot;white-space: pre;&quot;&gt;&#x9;&lt;span style=&quot;white-space: pre;&quot;&gt;&#x9;&lt;/span&gt;&lt;/span&gt;&lt;/span&gt;&lt;span style=&quot;background-color: initial;&quot;&gt;application_Id: ${ISGS}&lt;/span&gt;&lt;/div&gt;&lt;div&gt;&lt;span style=&quot;white-space: pre;&quot;&gt;&#x9;&lt;/span&gt;&lt;span style=&quot;white-space: pre;&quot;&gt;&#x9;&lt;/span&gt;title:${}&lt;/div&gt;&lt;div&gt;&lt;span style=&quot;white-space: pre;&quot;&gt;&#x9;&lt;/span&gt;&lt;span style=&quot;white-space: pre;&quot;&gt;&#x9;&lt;/span&gt;start_time:&lt;span style=&quot;background-color: initial;&quot;&gt;${}&lt;/span&gt;&lt;/div&gt;&lt;div&gt;&lt;span style=&quot;background-color: initial;&quot;&gt;&lt;span style=&quot;white-space: pre;&quot;&gt;&#x9;&lt;/span&gt;&lt;span style=&quot;white-space: pre;&quot;&gt;&#x9;&lt;/span&gt;form_Id: ${}&lt;br&gt;&lt;/span&gt;&lt;/div&gt;&lt;div&gt;&lt;span style=&quot;background-color: initial;&quot;&gt;&lt;span style=&quot;white-space: pre;&quot;&gt;&#x9;&lt;/span&gt;&lt;span style=&quot;white-space: pre;&quot;&gt;&#x9;&lt;/span&gt;form_data: $&lt;br&gt;&lt;/span&gt;&lt;/div&gt;&lt;div&gt;&lt;span style=&quot;background-color: initial;&quot;&gt;&lt;span style=&quot;white-space: pre;&quot;&gt;&#x9;&lt;/span&gt;&lt;span style=&quot;white-space: pre;&quot;&gt;&#x9;&lt;/span&gt;&lt;span style=&quot;white-space: pre;&quot;&gt;&#x9;&lt;/span&gt;{&lt;/span&gt;&lt;/div&gt;&lt;div&gt;&lt;span style=&quot;background-color: initial;&quot;&gt;&lt;span style=&quot;white-space: pre;&quot;&gt;&#x9;&lt;/span&gt;&lt;span style=&quot;white-space: pre;&quot;&gt;&#x9;&lt;/span&gt;&lt;span style=&quot;white-space: pre;&quot;&gt;&#x9;&lt;/span&gt;&lt;span style=&quot;white-space: pre;&quot;&gt;&#x9;&lt;/span&gt;field1: ${},&lt;br&gt;&lt;/span&gt;&lt;/div&gt;&lt;div&gt;&lt;span style=&quot;background-color: initial;&quot;&gt;&lt;span style=&quot;white-space: pre;&quot;&gt;&#x9;&lt;/span&gt;&lt;span style=&quot;white-space: pre;&quot;&gt;&#x9;&lt;/span&gt;&lt;span style=&quot;white-space: pre;&quot;&gt;&#x9;&lt;/span&gt;&lt;span style=&quot;white-space: pre;&quot;&gt;&#x9;&lt;/span&gt;field2: ${},&lt;br&gt;&lt;/span&gt;&lt;/div&gt;&lt;div&gt;&lt;span style=&quot;background-color: initial;&quot;&gt;&lt;span style=&quot;white-space: pre;&quot;&gt;&#x9;&lt;/span&gt;&lt;span style=&quot;white-space: pre;&quot;&gt;&#x9;&lt;/span&gt;&lt;span style=&quot;white-space: pre;&quot;&gt;&#x9;&lt;/span&gt;}&lt;br&gt;&lt;/span&gt;&lt;/div&gt;&lt;div&gt;&lt;span style=&quot;background-color: initial;&quot;&gt;&lt;span style=&quot;white-space: pre;&quot;&gt;&#x9;&lt;/span&gt;&lt;span style=&quot;white-space: pre;&quot;&gt;&#x9;&lt;/span&gt;due_time: ${}&lt;br&gt;&lt;/span&gt;&lt;/div&gt;&lt;div&gt;&lt;span style=&quot;background-color: initial; white-space: pre;&quot;&gt;&#x9;&lt;/span&gt;&lt;span style=&quot;background-color: initial; white-space: pre;&quot;&gt;&#x9;&lt;/span&gt;&lt;span style=&quot;background-color: initial;&quot;&gt;persona_Id:&lt;/span&gt;&lt;span style=&quot;background-color: initial;&quot;&gt;${}&lt;/span&gt;&lt;br&gt;&lt;/div&gt;&lt;div&gt;&lt;span style=&quot;background-color: initial;&quot;&gt;&lt;span style=&quot;white-space: pre;&quot;&gt;&#x9;&lt;/span&gt;&lt;span style=&quot;white-space: pre;&quot;&gt;&#x9;&lt;/span&gt;apprvl_status: ${pending}&lt;br&gt;&lt;/span&gt;&lt;/div&gt;&lt;div&gt;&lt;span style=&quot;white-space: pre;&quot;&gt;&#x9;&lt;/span&gt;}&lt;/div&gt;&lt;div&gt;&lt;br&gt;&lt;/div&gt;" style="text;html=1;align=left;verticalAlign=middle;whiteSpace=wrap;rounded=0;" parent="1" vertex="1">
          <mxGeometry x="-2640" y="-540" width="220" height="265" as="geometry" />
        </mxCell>
        <mxCell id="h8NzQWRy3qLN9IKDoXhu-73" value="&lt;b&gt;&lt;font style=&quot;font-size: 19px;&quot;&gt;/reg-apprvls/form&lt;/font&gt;&lt;/b&gt;&lt;div&gt;&lt;br&gt;&lt;/div&gt;&lt;div&gt;&lt;span style=&quot;background-color: initial;&quot;&gt;registered&lt;/span&gt;-Id: ${}&lt;/div&gt;&lt;div&gt;requested_By:&lt;span style=&quot;background-color: initial;&quot;&gt;${}&lt;/span&gt;&lt;br&gt;&lt;/div&gt;&lt;div&gt;type_Id:&amp;nbsp;&lt;span style=&quot;background-color: initial;&quot;&gt;${Form&lt;/span&gt;&lt;span style=&quot;background-color: initial;&quot;&gt;}&lt;/span&gt;&lt;span style=&quot;background-color: initial;&quot;&gt;&lt;br&gt;&lt;/span&gt;&lt;/div&gt;&lt;div&gt;req_apprvl_details:&lt;/div&gt;&lt;div&gt;&lt;span style=&quot;white-space: pre;&quot;&gt;&#x9;&lt;/span&gt;{&lt;/div&gt;&lt;div style=&quot;&quot;&gt;&lt;span style=&quot;white-space: pre;&quot;&gt;&lt;span style=&quot;white-space: pre;&quot;&gt;&#x9;&lt;span style=&quot;white-space: pre;&quot;&gt;&#x9;&lt;/span&gt;&lt;/span&gt;&lt;/span&gt;&lt;span style=&quot;background-color: initial;&quot;&gt;application_Id: ${ISGS}&lt;/span&gt;&lt;/div&gt;&lt;div&gt;&lt;span style=&quot;white-space: pre;&quot;&gt;&#x9;&lt;/span&gt;&lt;span style=&quot;white-space: pre;&quot;&gt;&#x9;&lt;/span&gt;title:${}&lt;/div&gt;&lt;div&gt;&lt;span style=&quot;white-space: pre;&quot;&gt;&#x9;&lt;/span&gt;&lt;span style=&quot;white-space: pre;&quot;&gt;&#x9;&lt;/span&gt;start_time:&lt;span style=&quot;background-color: initial;&quot;&gt;${}&lt;/span&gt;&lt;/div&gt;&lt;div&gt;&lt;span style=&quot;background-color: initial;&quot;&gt;&lt;span style=&quot;white-space: pre;&quot;&gt;&#x9;&lt;/span&gt;&lt;span style=&quot;white-space: pre;&quot;&gt;&#x9;&lt;/span&gt;due_time: ${}&lt;/span&gt;&lt;/div&gt;&lt;div&gt;&lt;span style=&quot;white-space: pre;&quot;&gt;&#x9;&lt;/span&gt;&lt;span style=&quot;white-space: pre;&quot;&gt;&#x9;&lt;/span&gt;form_Id: ${}&lt;span style=&quot;background-color: initial;&quot;&gt;&lt;br&gt;&lt;/span&gt;&lt;/div&gt;&lt;div&gt;&lt;span style=&quot;white-space: pre;&quot;&gt;&#x9;&lt;span style=&quot;white-space: pre;&quot;&gt;&#x9;&lt;/span&gt;form_d&lt;/span&gt;ata:$&lt;span style=&quot;white-space: pre;&quot;&gt;&#x9;&lt;/span&gt;&lt;span style=&quot;white-space: pre;&quot;&gt;&#x9;&lt;/span&gt;&lt;/div&gt;&lt;div&gt;&lt;span style=&quot;white-space: pre;&quot;&gt;&#x9;&lt;/span&gt;&lt;span style=&quot;white-space: pre;&quot;&gt;&#x9;&lt;/span&gt;&lt;span style=&quot;white-space: pre;&quot;&gt;&#x9;&lt;/span&gt;{&lt;/div&gt;&lt;div&gt;&lt;span style=&quot;white-space: pre;&quot;&gt;&#x9;&lt;/span&gt;&lt;span style=&quot;white-space: pre;&quot;&gt;&#x9;&lt;/span&gt;&lt;span style=&quot;white-space: pre;&quot;&gt;&#x9;&lt;/span&gt;&lt;span style=&quot;white-space: pre;&quot;&gt;&#x9;&lt;/span&gt;field1: ${},&lt;br&gt;&lt;/div&gt;&lt;div&gt;&lt;span style=&quot;white-space: pre;&quot;&gt;&#x9;&lt;/span&gt;&lt;span style=&quot;white-space: pre;&quot;&gt;&#x9;&lt;/span&gt;&lt;span style=&quot;white-space: pre;&quot;&gt;&#x9;&lt;/span&gt;&lt;span style=&quot;white-space: pre;&quot;&gt;&#x9;&lt;/span&gt;&lt;span style=&quot;background-color: initial;&quot;&gt;field2: ${},&lt;/span&gt;&lt;br&gt;&lt;/div&gt;&lt;div&gt;&lt;span style=&quot;background-color: initial;&quot;&gt;&lt;span style=&quot;white-space: pre;&quot;&gt;&#x9;&lt;/span&gt;&lt;span style=&quot;white-space: pre;&quot;&gt;&#x9;&lt;/span&gt;&lt;span style=&quot;white-space: pre;&quot;&gt;&#x9;&lt;/span&gt;&lt;span style=&quot;white-space: pre;&quot;&gt;&#x9;&lt;/span&gt;field3: ${},&lt;br&gt;&lt;/span&gt;&lt;/div&gt;&lt;div&gt;&lt;span style=&quot;background-color: initial;&quot;&gt;&lt;span style=&quot;white-space: pre;&quot;&gt;&#x9;&lt;/span&gt;&lt;span style=&quot;white-space: pre;&quot;&gt;&#x9;&lt;/span&gt;&lt;span style=&quot;white-space: pre;&quot;&gt;&#x9;&lt;/span&gt;&lt;span style=&quot;white-space: pre;&quot;&gt;&#x9;&lt;/span&gt;field4: ${}&lt;br&gt;&lt;/span&gt;&lt;/div&gt;&lt;div&gt;&lt;span style=&quot;background-color: initial;&quot;&gt;&lt;span style=&quot;white-space: pre;&quot;&gt;&#x9;&lt;/span&gt;&lt;span style=&quot;white-space: pre;&quot;&gt;&#x9;&lt;span style=&quot;white-space: pre;&quot;&gt;&#x9;&lt;/span&gt;&lt;span style=&quot;white-space: pre;&quot;&gt;&#x9;&lt;/span&gt;&lt;/span&gt;&lt;span style=&quot;white-space: pre;&quot;&gt;&#x9;&lt;/span&gt;&lt;span style=&quot;white-space: pre;&quot;&gt;&#x9;&lt;/span&gt;&lt;br&gt;&lt;/span&gt;&lt;/div&gt;&lt;div&gt;&lt;span style=&quot;white-space: pre;&quot;&gt;&#x9;&lt;/span&gt;&lt;span style=&quot;white-space: pre;&quot;&gt;&#x9;&lt;/span&gt;&lt;span style=&quot;white-space: pre;&quot;&gt;&#x9;&lt;/span&gt;}&lt;br&gt;&lt;/div&gt;&lt;div&gt;persona_Id:&lt;span style=&quot;background-color: initial;&quot;&gt;${}&lt;/span&gt;&lt;/div&gt;&lt;div&gt;&lt;span style=&quot;background-color: initial;&quot;&gt;apprvl_status: ${&lt;/span&gt;&lt;span style=&quot;background-color: initial;&quot;&gt;pending&lt;/span&gt;&lt;span style=&quot;background-color: initial;&quot;&gt;}&lt;/span&gt;&lt;/div&gt;&lt;div&gt;&lt;span style=&quot;white-space: pre;&quot;&gt;&#x9;&lt;/span&gt;}&lt;/div&gt;&lt;div&gt;&lt;br&gt;&lt;/div&gt;" style="text;html=1;align=left;verticalAlign=middle;whiteSpace=wrap;rounded=0;" parent="1" vertex="1">
          <mxGeometry x="-2230" y="-550" width="280" height="340" as="geometry" />
        </mxCell>
        <mxCell id="4whmI7BuCEZ9BgeUe7PW-1" value="1" style="ellipse;whiteSpace=wrap;html=1;aspect=fixed;" vertex="1" parent="1">
          <mxGeometry x="145" y="85" width="30" height="30" as="geometry" />
        </mxCell>
        <mxCell id="4whmI7BuCEZ9BgeUe7PW-2" value="&lt;font style=&quot;font-size: 25px;&quot;&gt;1&lt;/font&gt;" style="ellipse;whiteSpace=wrap;html=1;aspect=fixed;" vertex="1" parent="1">
          <mxGeometry x="-3070" y="-590" width="60" height="60" as="geometry" />
        </mxCell>
        <mxCell id="4whmI7BuCEZ9BgeUe7PW-5" style="edgeStyle=orthogonalEdgeStyle;rounded=0;orthogonalLoop=1;jettySize=auto;html=1;" edge="1" parent="1" source="4whmI7BuCEZ9BgeUe7PW-3" target="4whmI7BuCEZ9BgeUe7PW-4">
          <mxGeometry relative="1" as="geometry" />
        </mxCell>
        <mxCell id="4whmI7BuCEZ9BgeUe7PW-3" value="&lt;br&gt;&lt;span data-meta=&quot;&lt;--(miro-data-v1)tl2kroutqq+gnq+gn111oZynrqBnXZ2qnK2fhJ9ddV2wk6WRiaWsjYqxnnhdZ12fnK+cXXW2XaqdpaCer65ddZa2XbKkn6Kgr3+cr5xddbZdpa6qqV11tl2upLWgXXW2XbKkn6+jXXVscm9yaWtvb2tucHR0cW90bGddo6CkoqOvXXVscWtuaW10dHBzbXN0b25ub7hnXZqrqq6kr6SqqV11tl2qoaGuoK+Ls111tl2zXXVrZ120XXVruLhnXa6enKegXXW2Xa6enKegXXVsuGddraCnnK+ksaCOnpynoF11bGddraqvnK+kqqlddbZdraqvnK+kqqlddWu4Z12toKecr6SxoI2qr5yvpKqpXXVrZ12aq5ytoKmvXXWpsKenZ12voLOvXXVdd6t5fIuLrmqIqp+wp6Cud2qreV1nXa6vtKegXXVdtpddrq+XXXVuZ5ddrq6XXXVtZ5ddrp6XXXVscmxrcWxzZ5ddnZ6XXXVobGeXXZ2ql111bGeXXZ2tnpdddWxybGtxbHNnl12drbKXXXVta2eXXZ2tqpdddWxnl12dra6XXXVtZ5ddoaGpl111l12Kq6CpjpyprpddZ5ddr56XXXVscmxrcWxzZ5ddr66el111bGeXXa+cl111l12el11nl12vnLGXXXWXXaiXXWeXXaGul111bW5tZ5ddnZdddWtnl12kl111a2eXXbCXXXVrZ5ddrpdddWtnl12drp6XXXVsZ5ddkYCNl111bWlsZ5ddo6eXXXVruF1nXa6jnKugXXVdbl24Z12vtKugXXVdrqOcq6BduGddr7SroF11bG9nXaSfXXVrZ12kqaSvpJynhJ9ddV1ub3BzcnFvcHNua3Fsb210cm9sXbiYZ12ooK+cXXW2uLhnXbGgra6kqqlddW1nXaOqrq9ddV2opK2qaZ6qqF24(/miro-data-v1)--&gt;&quot;&gt;&lt;/span&gt;&lt;div&gt;&lt;div&gt;&lt;div&gt;Application/Modules&lt;/div&gt;&lt;/div&gt;&lt;/div&gt;" style="rounded=0;whiteSpace=wrap;html=1;fillColor=#e1d5e7;strokeColor=#9673a6;" vertex="1" parent="1">
          <mxGeometry x="-3060" y="585" width="120" height="50" as="geometry" />
        </mxCell>
        <mxCell id="4whmI7BuCEZ9BgeUe7PW-7" value="" style="edgeStyle=orthogonalEdgeStyle;rounded=0;orthogonalLoop=1;jettySize=auto;html=1;" edge="1" parent="1" source="4whmI7BuCEZ9BgeUe7PW-4" target="4whmI7BuCEZ9BgeUe7PW-6">
          <mxGeometry relative="1" as="geometry" />
        </mxCell>
        <mxCell id="4whmI7BuCEZ9BgeUe7PW-9" value="" style="edgeStyle=orthogonalEdgeStyle;rounded=0;orthogonalLoop=1;jettySize=auto;html=1;" edge="1" parent="1" source="4whmI7BuCEZ9BgeUe7PW-4" target="4whmI7BuCEZ9BgeUe7PW-8">
          <mxGeometry relative="1" as="geometry" />
        </mxCell>
        <mxCell id="4whmI7BuCEZ9BgeUe7PW-4" value="Registering for Approvals&lt;div&gt;1.Generic&lt;/div&gt;&lt;div&gt;2.Form&lt;/div&gt;" style="rounded=1;whiteSpace=wrap;html=1;" vertex="1" parent="1">
          <mxGeometry x="-2780" y="580" width="120" height="60" as="geometry" />
        </mxCell>
        <mxCell id="4whmI7BuCEZ9BgeUe7PW-12" style="edgeStyle=orthogonalEdgeStyle;rounded=0;orthogonalLoop=1;jettySize=auto;html=1;entryX=1;entryY=0.5;entryDx=0;entryDy=0;" edge="1" parent="1" source="4whmI7BuCEZ9BgeUe7PW-6" target="4whmI7BuCEZ9BgeUe7PW-10">
          <mxGeometry relative="1" as="geometry" />
        </mxCell>
        <mxCell id="4whmI7BuCEZ9BgeUe7PW-37" style="edgeStyle=orthogonalEdgeStyle;rounded=0;orthogonalLoop=1;jettySize=auto;html=1;" edge="1" parent="1" source="4whmI7BuCEZ9BgeUe7PW-6" target="4whmI7BuCEZ9BgeUe7PW-17">
          <mxGeometry relative="1" as="geometry" />
        </mxCell>
        <mxCell id="4whmI7BuCEZ9BgeUe7PW-38" style="edgeStyle=orthogonalEdgeStyle;rounded=0;orthogonalLoop=1;jettySize=auto;html=1;entryX=1;entryY=0.5;entryDx=0;entryDy=0;" edge="1" parent="1" source="4whmI7BuCEZ9BgeUe7PW-6" target="4whmI7BuCEZ9BgeUe7PW-14">
          <mxGeometry relative="1" as="geometry">
            <Array as="points">
              <mxPoint x="-2310" y="250" />
              <mxPoint x="-2160" y="250" />
              <mxPoint x="-2160" y="120" />
            </Array>
          </mxGeometry>
        </mxCell>
        <mxCell id="4whmI7BuCEZ9BgeUe7PW-39" style="edgeStyle=orthogonalEdgeStyle;rounded=0;orthogonalLoop=1;jettySize=auto;html=1;entryX=0;entryY=0.5;entryDx=0;entryDy=0;" edge="1" parent="1" source="4whmI7BuCEZ9BgeUe7PW-6" target="4whmI7BuCEZ9BgeUe7PW-14">
          <mxGeometry relative="1" as="geometry">
            <Array as="points">
              <mxPoint x="-2310" y="250" />
              <mxPoint x="-2440" y="250" />
              <mxPoint x="-2440" y="120" />
            </Array>
          </mxGeometry>
        </mxCell>
        <mxCell id="4whmI7BuCEZ9BgeUe7PW-6" value="Status" style="rhombus;whiteSpace=wrap;html=1;rounded=1;" vertex="1" parent="1">
          <mxGeometry x="-2350" y="350" width="80" height="80" as="geometry" />
        </mxCell>
        <mxCell id="4whmI7BuCEZ9BgeUe7PW-13" style="edgeStyle=orthogonalEdgeStyle;rounded=0;orthogonalLoop=1;jettySize=auto;html=1;" edge="1" parent="1" source="4whmI7BuCEZ9BgeUe7PW-8" target="4whmI7BuCEZ9BgeUe7PW-11">
          <mxGeometry relative="1" as="geometry" />
        </mxCell>
        <mxCell id="4whmI7BuCEZ9BgeUe7PW-24" style="edgeStyle=orthogonalEdgeStyle;rounded=0;orthogonalLoop=1;jettySize=auto;html=1;" edge="1" parent="1" source="4whmI7BuCEZ9BgeUe7PW-8" target="4whmI7BuCEZ9BgeUe7PW-21">
          <mxGeometry relative="1" as="geometry">
            <Array as="points">
              <mxPoint x="-2310" y="910" />
              <mxPoint x="-2440" y="910" />
              <mxPoint x="-2440" y="1030" />
            </Array>
          </mxGeometry>
        </mxCell>
        <mxCell id="4whmI7BuCEZ9BgeUe7PW-25" style="edgeStyle=orthogonalEdgeStyle;rounded=0;orthogonalLoop=1;jettySize=auto;html=1;entryX=1;entryY=0.5;entryDx=0;entryDy=0;" edge="1" parent="1" source="4whmI7BuCEZ9BgeUe7PW-8" target="4whmI7BuCEZ9BgeUe7PW-21">
          <mxGeometry relative="1" as="geometry">
            <Array as="points">
              <mxPoint x="-2310" y="910" />
              <mxPoint x="-2180" y="910" />
              <mxPoint x="-2180" y="1030" />
            </Array>
          </mxGeometry>
        </mxCell>
        <mxCell id="4whmI7BuCEZ9BgeUe7PW-26" style="edgeStyle=orthogonalEdgeStyle;rounded=0;orthogonalLoop=1;jettySize=auto;html=1;" edge="1" parent="1" source="4whmI7BuCEZ9BgeUe7PW-8" target="4whmI7BuCEZ9BgeUe7PW-20">
          <mxGeometry relative="1" as="geometry" />
        </mxCell>
        <mxCell id="4whmI7BuCEZ9BgeUe7PW-8" value="Status" style="rhombus;whiteSpace=wrap;html=1;rounded=1;" vertex="1" parent="1">
          <mxGeometry x="-2350" y="760" width="80" height="80" as="geometry" />
        </mxCell>
        <mxCell id="4whmI7BuCEZ9BgeUe7PW-41" style="edgeStyle=orthogonalEdgeStyle;rounded=0;orthogonalLoop=1;jettySize=auto;html=1;entryX=0;entryY=0.5;entryDx=0;entryDy=0;" edge="1" parent="1" source="4whmI7BuCEZ9BgeUe7PW-10" target="4whmI7BuCEZ9BgeUe7PW-19">
          <mxGeometry relative="1" as="geometry">
            <Array as="points">
              <mxPoint x="-2560" y="-70" />
            </Array>
          </mxGeometry>
        </mxCell>
        <mxCell id="4whmI7BuCEZ9BgeUe7PW-10" value="Send Update Time Elapsed" style="whiteSpace=wrap;html=1;rounded=1;fillColor=#f8cecc;strokeColor=#b85450;" vertex="1" parent="1">
          <mxGeometry x="-2610" y="360" width="120" height="60" as="geometry" />
        </mxCell>
        <mxCell id="4whmI7BuCEZ9BgeUe7PW-28" style="edgeStyle=orthogonalEdgeStyle;rounded=0;orthogonalLoop=1;jettySize=auto;html=1;entryX=0;entryY=0.5;entryDx=0;entryDy=0;" edge="1" parent="1" source="4whmI7BuCEZ9BgeUe7PW-11" target="4whmI7BuCEZ9BgeUe7PW-23">
          <mxGeometry relative="1" as="geometry">
            <Array as="points">
              <mxPoint x="-2560" y="1185" />
            </Array>
          </mxGeometry>
        </mxCell>
        <mxCell id="4whmI7BuCEZ9BgeUe7PW-11" value="Send Update Time Elapsed" style="whiteSpace=wrap;html=1;rounded=1;fillColor=#f8cecc;strokeColor=#b85450;" vertex="1" parent="1">
          <mxGeometry x="-2620" y="770" width="120" height="60" as="geometry" />
        </mxCell>
        <mxCell id="4whmI7BuCEZ9BgeUe7PW-43" style="edgeStyle=orthogonalEdgeStyle;rounded=0;orthogonalLoop=1;jettySize=auto;html=1;" edge="1" parent="1" source="4whmI7BuCEZ9BgeUe7PW-14" target="4whmI7BuCEZ9BgeUe7PW-19">
          <mxGeometry relative="1" as="geometry" />
        </mxCell>
        <mxCell id="4whmI7BuCEZ9BgeUe7PW-14" value="Send Update Approved" style="whiteSpace=wrap;html=1;rounded=1;fillColor=#008a00;fontColor=#ffffff;strokeColor=#005700;" vertex="1" parent="1">
          <mxGeometry x="-2360" y="90" width="120" height="60" as="geometry" />
        </mxCell>
        <mxCell id="4whmI7BuCEZ9BgeUe7PW-15" value="&lt;b&gt;&lt;font style=&quot;font-size: 19px;&quot;&gt;/reg-apprvls&lt;/font&gt;&lt;/b&gt;&lt;div&gt;&lt;br&gt;&lt;/div&gt;&lt;div&gt;&lt;span style=&quot;background-color: initial;&quot;&gt;registered&lt;/span&gt;-Id: ${}&lt;/div&gt;&lt;div&gt;requested_By:&lt;span style=&quot;background-color: initial;&quot;&gt;${}&lt;/span&gt;&lt;br&gt;&lt;/div&gt;&lt;div&gt;&lt;div&gt;type_Id:&amp;nbsp;&lt;span style=&quot;background-color: initial;&quot;&gt;${&lt;/span&gt;&lt;span style=&quot;background-color: initial;&quot;&gt;Generic/Form}&lt;/span&gt;&lt;/div&gt;&lt;/div&gt;&lt;div&gt;req_apprvl_details:&lt;/div&gt;&lt;div&gt;&lt;span style=&quot;white-space: pre;&quot;&gt;&#x9;&lt;/span&gt;{&lt;/div&gt;&lt;div style=&quot;&quot;&gt;&lt;span style=&quot;white-space: pre;&quot;&gt;&lt;span style=&quot;white-space: pre;&quot;&gt;&#x9;&lt;span style=&quot;white-space: pre;&quot;&gt;&#x9;&lt;/span&gt;&lt;/span&gt;&lt;/span&gt;&lt;span style=&quot;background-color: initial;&quot;&gt;application_Id: ${ISGS}&lt;/span&gt;&lt;/div&gt;&lt;div&gt;&lt;span style=&quot;white-space: pre;&quot;&gt;&#x9;&lt;/span&gt;&lt;span style=&quot;white-space: pre;&quot;&gt;&#x9;&lt;/span&gt;title:${}&lt;/div&gt;&lt;div&gt;&lt;span style=&quot;white-space: pre;&quot;&gt;&#x9;&lt;/span&gt;&lt;span style=&quot;white-space: pre;&quot;&gt;&#x9;&lt;/span&gt;start_time:&lt;span style=&quot;background-color: initial;&quot;&gt;${}&lt;/span&gt;&lt;/div&gt;&lt;div&gt;&lt;span style=&quot;background-color: initial;&quot;&gt;&lt;span style=&quot;white-space: pre;&quot;&gt;&#x9;&lt;/span&gt;&lt;span style=&quot;white-space: pre;&quot;&gt;&#x9;&lt;/span&gt;due_time: ${}&lt;br&gt;&lt;/span&gt;&lt;/div&gt;&lt;div&gt;&lt;span style=&quot;white-space: pre;&quot;&gt;&#x9;&lt;/span&gt;&lt;span style=&quot;white-space: pre;&quot;&gt;&#x9;&lt;/span&gt;&lt;span style=&quot;background-color: initial;&quot;&gt;persona_Id:&lt;/span&gt;&lt;span style=&quot;background-color: initial;&quot;&gt;${}&lt;/span&gt;&lt;/div&gt;&lt;div&gt;&lt;span style=&quot;background-color: initial;&quot;&gt;&lt;span style=&quot;white-space: pre;&quot;&gt;&#x9;&lt;/span&gt;&lt;span style=&quot;white-space: pre;&quot;&gt;&#x9;&lt;/span&gt;apprvl_status: ${pending}&lt;br&gt;&lt;/span&gt;&lt;/div&gt;&lt;div&gt;&lt;span style=&quot;white-space: pre;&quot;&gt;&#x9;&lt;/span&gt;}&lt;/div&gt;&lt;div&gt;&lt;br&gt;&lt;/div&gt;" style="text;html=1;align=left;verticalAlign=middle;whiteSpace=wrap;rounded=0;" vertex="1" parent="1">
          <mxGeometry x="-2980" y="-590" width="230" height="295" as="geometry" />
        </mxCell>
        <mxCell id="4whmI7BuCEZ9BgeUe7PW-42" style="edgeStyle=orthogonalEdgeStyle;rounded=0;orthogonalLoop=1;jettySize=auto;html=1;entryX=1;entryY=0.5;entryDx=0;entryDy=0;" edge="1" parent="1" source="4whmI7BuCEZ9BgeUe7PW-17" target="4whmI7BuCEZ9BgeUe7PW-19">
          <mxGeometry relative="1" as="geometry">
            <Array as="points">
              <mxPoint x="-2060" y="-70" />
            </Array>
          </mxGeometry>
        </mxCell>
        <mxCell id="4whmI7BuCEZ9BgeUe7PW-17" value="Send update Rejected" style="whiteSpace=wrap;html=1;rounded=1;fillColor=#a20025;fontColor=#ffffff;strokeColor=#6F0000;" vertex="1" parent="1">
          <mxGeometry x="-2130" y="360" width="120" height="60" as="geometry" />
        </mxCell>
        <mxCell id="4whmI7BuCEZ9BgeUe7PW-19" value="&lt;br&gt;&lt;span data-meta=&quot;&lt;--(miro-data-v1)tl2kroutqq+gnq+gn111oZynrqBnXZ2qnK2fhJ9ddV2wk6WRiaWsjYqxnnhdZ12fnK+cXXW2XaqdpaCer65ddZa2XbKkn6Kgr3+cr5xddbZdpa6qqV11tl2upLWgXXW2XbKkn6+jXXVscm9yaWtvb2tucHR0cW90bGddo6CkoqOvXXVscWtuaW10dHBzbXN0b25ub7hnXZqrqq6kr6SqqV11tl2qoaGuoK+Ls111tl2zXXVrZ120XXVruLhnXa6enKegXXW2Xa6enKegXXVsuGddraCnnK+ksaCOnpynoF11bGddraqvnK+kqqlddbZdraqvnK+kqqlddWu4Z12toKecr6SxoI2qr5yvpKqpXXVrZ12aq5ytoKmvXXWpsKenZ12voLOvXXVdd6t5fIuLrmqIqp+wp6Cud2qreV1nXa6vtKegXXVdtpddrq+XXXVuZ5ddrq6XXXVtZ5ddrp6XXXVscmxrcWxzZ5ddnZ6XXXVobGeXXZ2ql111bGeXXZ2tnpdddWxybGtxbHNnl12drbKXXXVta2eXXZ2tqpdddWxnl12dra6XXXVtZ5ddoaGpl111l12Kq6CpjpyprpddZ5ddr56XXXVscmxrcWxzZ5ddr66el111bGeXXa+cl111l12el11nl12vnLGXXXWXXaiXXWeXXaGul111bW5tZ5ddnZdddWtnl12kl111a2eXXbCXXXVrZ5ddrpdddWtnl12drp6XXXVsZ5ddkYCNl111bWlsZ5ddo6eXXXVruF1nXa6jnKugXXVdbl24Z12vtKugXXVdrqOcq6BduGddr7SroF11bG9nXaSfXXVrZ12kqaSvpJynhJ9ddV1ub3BzcnFvcHNua3Fsb210cm9sXbiYZ12ooK+cXXW2uLhnXbGgra6kqqlddW1nXaOqrq9ddV2opK2qaZ6qqF24(/miro-data-v1)--&gt;&quot;&gt;&lt;/span&gt;&lt;div&gt;&lt;div&gt;&lt;div&gt;APPs/Modules&lt;/div&gt;&lt;/div&gt;&lt;/div&gt;" style="rounded=0;whiteSpace=wrap;html=1;fillColor=#e1d5e7;strokeColor=#9673a6;" vertex="1" parent="1">
          <mxGeometry x="-2350" y="-95" width="100" height="50" as="geometry" />
        </mxCell>
        <mxCell id="4whmI7BuCEZ9BgeUe7PW-27" style="edgeStyle=orthogonalEdgeStyle;rounded=0;orthogonalLoop=1;jettySize=auto;html=1;entryX=1;entryY=0.5;entryDx=0;entryDy=0;" edge="1" parent="1" source="4whmI7BuCEZ9BgeUe7PW-20" target="4whmI7BuCEZ9BgeUe7PW-23">
          <mxGeometry relative="1" as="geometry">
            <Array as="points">
              <mxPoint x="-2065" y="1185" />
            </Array>
          </mxGeometry>
        </mxCell>
        <mxCell id="4whmI7BuCEZ9BgeUe7PW-20" value="Send update Rejected" style="whiteSpace=wrap;html=1;rounded=1;fillColor=#a20025;fontColor=#ffffff;strokeColor=#6F0000;" vertex="1" parent="1">
          <mxGeometry x="-2125" y="770" width="120" height="60" as="geometry" />
        </mxCell>
        <mxCell id="4whmI7BuCEZ9BgeUe7PW-29" style="edgeStyle=orthogonalEdgeStyle;rounded=0;orthogonalLoop=1;jettySize=auto;html=1;entryX=0.5;entryY=0;entryDx=0;entryDy=0;" edge="1" parent="1" source="4whmI7BuCEZ9BgeUe7PW-21" target="4whmI7BuCEZ9BgeUe7PW-23">
          <mxGeometry relative="1" as="geometry" />
        </mxCell>
        <mxCell id="4whmI7BuCEZ9BgeUe7PW-21" value="Send Update Approved" style="whiteSpace=wrap;html=1;rounded=1;fillColor=#008a00;fontColor=#ffffff;strokeColor=#005700;" vertex="1" parent="1">
          <mxGeometry x="-2370" y="1000" width="120" height="60" as="geometry" />
        </mxCell>
        <mxCell id="4whmI7BuCEZ9BgeUe7PW-23" value="&lt;br&gt;&lt;span data-meta=&quot;&lt;--(miro-data-v1)tl2kroutqq+gnq+gn111oZynrqBnXZ2qnK2fhJ9ddV2wk6WRiaWsjYqxnnhdZ12fnK+cXXW2XaqdpaCer65ddZa2XbKkn6Kgr3+cr5xddbZdpa6qqV11tl2upLWgXXW2XbKkn6+jXXVscm9yaWtvb2tucHR0cW90bGddo6CkoqOvXXVscWtuaW10dHBzbXN0b25ub7hnXZqrqq6kr6SqqV11tl2qoaGuoK+Ls111tl2zXXVrZ120XXVruLhnXa6enKegXXW2Xa6enKegXXVsuGddraCnnK+ksaCOnpynoF11bGddraqvnK+kqqlddbZdraqvnK+kqqlddWu4Z12toKecr6SxoI2qr5yvpKqpXXVrZ12aq5ytoKmvXXWpsKenZ12voLOvXXVdd6t5fIuLrmqIqp+wp6Cud2qreV1nXa6vtKegXXVdtpddrq+XXXVuZ5ddrq6XXXVtZ5ddrp6XXXVscmxrcWxzZ5ddnZ6XXXVobGeXXZ2ql111bGeXXZ2tnpdddWxybGtxbHNnl12drbKXXXVta2eXXZ2tqpdddWxnl12dra6XXXVtZ5ddoaGpl111l12Kq6CpjpyprpddZ5ddr56XXXVscmxrcWxzZ5ddr66el111bGeXXa+cl111l12el11nl12vnLGXXXWXXaiXXWeXXaGul111bW5tZ5ddnZdddWtnl12kl111a2eXXbCXXXVrZ5ddrpdddWtnl12drp6XXXVsZ5ddkYCNl111bWlsZ5ddo6eXXXVruF1nXa6jnKugXXVdbl24Z12vtKugXXVdrqOcq6BduGddr7SroF11bG9nXaSfXXVrZ12kqaSvpJynhJ9ddV1ub3BzcnFvcHNua3Fsb210cm9sXbiYZ12ooK+cXXW2uLhnXbGgra6kqqlddW1nXaOqrq9ddV2opK2qaZ6qqF24(/miro-data-v1)--&gt;&quot;&gt;&lt;/span&gt;&lt;div&gt;&lt;div&gt;&lt;div&gt;APPs/Modules&lt;/div&gt;&lt;/div&gt;&lt;/div&gt;" style="rounded=0;whiteSpace=wrap;html=1;fillColor=#e1d5e7;strokeColor=#9673a6;" vertex="1" parent="1">
          <mxGeometry x="-2360" y="1160" width="100" height="50" as="geometry" />
        </mxCell>
        <mxCell id="4whmI7BuCEZ9BgeUe7PW-30" value="Auto-Approved" style="text;html=1;align=center;verticalAlign=middle;whiteSpace=wrap;rounded=0;" vertex="1" parent="1">
          <mxGeometry x="-2280" y="910" width="90" height="30" as="geometry" />
        </mxCell>
        <mxCell id="4whmI7BuCEZ9BgeUe7PW-31" value="Approved" style="text;html=1;align=center;verticalAlign=middle;whiteSpace=wrap;rounded=0;" vertex="1" parent="1">
          <mxGeometry x="-2420" y="910" width="60" height="30" as="geometry" />
        </mxCell>
        <mxCell id="4whmI7BuCEZ9BgeUe7PW-32" value="Response&lt;div&gt;/status&lt;/div&gt;" style="text;html=1;align=center;verticalAlign=middle;whiteSpace=wrap;rounded=0;" vertex="1" parent="1">
          <mxGeometry x="-2320" y="1090" width="90" height="50" as="geometry" />
        </mxCell>
        <mxCell id="4whmI7BuCEZ9BgeUe7PW-33" value="Response&lt;div&gt;/status&lt;/div&gt;" style="text;html=1;align=center;verticalAlign=middle;whiteSpace=wrap;rounded=0;" vertex="1" parent="1">
          <mxGeometry x="-2520" y="1140" width="90" height="50" as="geometry" />
        </mxCell>
        <mxCell id="4whmI7BuCEZ9BgeUe7PW-34" value="Response&lt;div&gt;/status&lt;/div&gt;" style="text;html=1;align=center;verticalAlign=middle;whiteSpace=wrap;rounded=0;" vertex="1" parent="1">
          <mxGeometry x="-2200" y="1140" width="90" height="50" as="geometry" />
        </mxCell>
        <mxCell id="4whmI7BuCEZ9BgeUe7PW-35" value="Time Elapsed" style="text;html=1;align=center;verticalAlign=middle;whiteSpace=wrap;rounded=0;" vertex="1" parent="1">
          <mxGeometry x="-2450" y="760" width="60" height="30" as="geometry" />
        </mxCell>
        <mxCell id="4whmI7BuCEZ9BgeUe7PW-36" value="Rejected" style="text;html=1;align=center;verticalAlign=middle;whiteSpace=wrap;rounded=0;" vertex="1" parent="1">
          <mxGeometry x="-2240" y="770" width="60" height="30" as="geometry" />
        </mxCell>
        <mxCell id="4whmI7BuCEZ9BgeUe7PW-44" value="&lt;font style=&quot;font-size: 16px;&quot;&gt;Generic&lt;/font&gt;" style="text;html=1;align=center;verticalAlign=middle;whiteSpace=wrap;rounded=0;" vertex="1" parent="1">
          <mxGeometry x="-2300" y="520" width="60" height="30" as="geometry" />
        </mxCell>
        <mxCell id="4whmI7BuCEZ9BgeUe7PW-45" value="&lt;font style=&quot;font-size: 17px;&quot;&gt;Form&lt;/font&gt;" style="text;html=1;align=center;verticalAlign=middle;whiteSpace=wrap;rounded=0;" vertex="1" parent="1">
          <mxGeometry x="-2300" y="650" width="60" height="30" as="geometry" />
        </mxCell>
        <mxCell id="4whmI7BuCEZ9BgeUe7PW-46" value="&lt;font style=&quot;font-size: 25px;&quot;&gt;1&lt;/font&gt;" style="ellipse;whiteSpace=wrap;html=1;aspect=fixed;" vertex="1" parent="1">
          <mxGeometry x="-2890" y="535" width="60" height="60" as="geometry" />
        </mxCell>
        <mxCell id="4whmI7BuCEZ9BgeUe7PW-47" value="&lt;font style=&quot;font-size: 25px;&quot;&gt;2&lt;/font&gt;" style="ellipse;whiteSpace=wrap;html=1;aspect=fixed;" vertex="1" parent="1">
          <mxGeometry x="-2380" y="490" width="60" height="60" as="geometry" />
        </mxCell>
        <mxCell id="4whmI7BuCEZ9BgeUe7PW-48" value="&lt;font style=&quot;font-size: 25px;&quot;&gt;2&lt;/font&gt;" style="ellipse;whiteSpace=wrap;html=1;aspect=fixed;" vertex="1" parent="1">
          <mxGeometry x="-2730" y="-590" width="60" height="60" as="geometry" />
        </mxCell>
        <mxCell id="4whmI7BuCEZ9BgeUe7PW-50" value="&lt;font style=&quot;font-size: 25px;&quot;&gt;3&lt;/font&gt;" style="ellipse;whiteSpace=wrap;html=1;aspect=fixed;" vertex="1" parent="1">
          <mxGeometry x="-2380" y="650" width="60" height="60" as="geometry" />
        </mxCell>
        <mxCell id="4whmI7BuCEZ9BgeUe7PW-51" value="&lt;font style=&quot;font-size: 25px;&quot;&gt;3&lt;/font&gt;" style="ellipse;whiteSpace=wrap;html=1;aspect=fixed;" vertex="1" parent="1">
          <mxGeometry x="-2310" y="-602.5" width="60" height="60" as="geometry" />
        </mxCell>
        <mxCell id="4whmI7BuCEZ9BgeUe7PW-52" value="Rejected" style="text;html=1;align=center;verticalAlign=middle;whiteSpace=wrap;rounded=0;" vertex="1" parent="1">
          <mxGeometry x="-2230" y="390" width="60" height="30" as="geometry" />
        </mxCell>
        <mxCell id="4whmI7BuCEZ9BgeUe7PW-53" value="Time Elapsed" style="text;html=1;align=center;verticalAlign=middle;whiteSpace=wrap;rounded=0;" vertex="1" parent="1">
          <mxGeometry x="-2450" y="400" width="60" height="30" as="geometry" />
        </mxCell>
        <mxCell id="4whmI7BuCEZ9BgeUe7PW-54" value="Approved" style="text;html=1;align=center;verticalAlign=middle;whiteSpace=wrap;rounded=0;" vertex="1" parent="1">
          <mxGeometry x="-2400" y="250" width="60" height="30" as="geometry" />
        </mxCell>
        <mxCell id="4whmI7BuCEZ9BgeUe7PW-55" value="Auto-Approved" style="text;html=1;align=center;verticalAlign=middle;whiteSpace=wrap;rounded=0;" vertex="1" parent="1">
          <mxGeometry x="-2280" y="250" width="90" height="30" as="geometry" />
        </mxCell>
        <mxCell id="4whmI7BuCEZ9BgeUe7PW-56" value="Response&lt;div&gt;/status&lt;/div&gt;" style="text;html=1;align=center;verticalAlign=middle;whiteSpace=wrap;rounded=0;" vertex="1" parent="1">
          <mxGeometry x="-2300" y="-20" width="90" height="50" as="geometry" />
        </mxCell>
        <mxCell id="4whmI7BuCEZ9BgeUe7PW-57" value="Response&lt;div&gt;/status&lt;/div&gt;" style="text;html=1;align=center;verticalAlign=middle;whiteSpace=wrap;rounded=0;" vertex="1" parent="1">
          <mxGeometry x="-2180" y="-70" width="90" height="50" as="geometry" />
        </mxCell>
        <mxCell id="4whmI7BuCEZ9BgeUe7PW-58" value="Response&lt;div&gt;/status&lt;/div&gt;" style="text;html=1;align=center;verticalAlign=middle;whiteSpace=wrap;rounded=0;" vertex="1" parent="1">
          <mxGeometry x="-2520" y="-70" width="90" height="50" as="geometry" />
        </mxCell>
        <mxCell id="4whmI7BuCEZ9BgeUe7PW-59" value="&lt;font style=&quot;font-size: 25px;&quot;&gt;4&lt;/font&gt;" style="ellipse;whiteSpace=wrap;html=1;aspect=fixed;" vertex="1" parent="1">
          <mxGeometry x="-2550" y="-40" width="60" height="60" as="geometry" />
        </mxCell>
        <mxCell id="4whmI7BuCEZ9BgeUe7PW-60" value="&lt;font style=&quot;font-size: 25px;&quot;&gt;5&lt;/font&gt;" style="ellipse;whiteSpace=wrap;html=1;aspect=fixed;" vertex="1" parent="1">
          <mxGeometry x="-2360" y="10" width="60" height="60" as="geometry" />
        </mxCell>
        <mxCell id="4whmI7BuCEZ9BgeUe7PW-61" value="&lt;font style=&quot;font-size: 25px;&quot;&gt;6&lt;/font&gt;" style="ellipse;whiteSpace=wrap;html=1;aspect=fixed;" vertex="1" parent="1">
          <mxGeometry x="-2125" y="-35" width="60" height="60" as="geometry" />
        </mxCell>
        <mxCell id="4whmI7BuCEZ9BgeUe7PW-62" value="&lt;font style=&quot;font-size: 25px;&quot;&gt;7&lt;/font&gt;" style="ellipse;whiteSpace=wrap;html=1;aspect=fixed;" vertex="1" parent="1">
          <mxGeometry x="-2550" y="1080" width="60" height="60" as="geometry" />
        </mxCell>
        <mxCell id="4whmI7BuCEZ9BgeUe7PW-63" value="&lt;font style=&quot;font-size: 25px;&quot;&gt;8&lt;/font&gt;" style="ellipse;whiteSpace=wrap;html=1;aspect=fixed;" vertex="1" parent="1">
          <mxGeometry x="-2380" y="1090" width="60" height="60" as="geometry" />
        </mxCell>
        <mxCell id="4whmI7BuCEZ9BgeUe7PW-64" value="&lt;font style=&quot;font-size: 25px;&quot;&gt;9&lt;/font&gt;" style="ellipse;whiteSpace=wrap;html=1;aspect=fixed;" vertex="1" parent="1">
          <mxGeometry x="-2125" y="1080" width="60" height="60" as="geometry" />
        </mxCell>
        <mxCell id="4whmI7BuCEZ9BgeUe7PW-65" value="&lt;font style=&quot;font-size: 25px;&quot;&gt;4&lt;/font&gt;" style="ellipse;whiteSpace=wrap;html=1;aspect=fixed;" vertex="1" parent="1">
          <mxGeometry x="-1890" y="-600" width="60" height="60" as="geometry" />
        </mxCell>
        <mxCell id="4whmI7BuCEZ9BgeUe7PW-66" value="&lt;b&gt;&lt;font style=&quot;font-size: 19px;&quot;&gt;apprvls/status?apprvl_Id=registered_Id&lt;/font&gt;&lt;/b&gt;&lt;div&gt;&lt;br&gt;&lt;/div&gt;&lt;div&gt;apprvl_Id:&lt;br&gt;&lt;/div&gt;&lt;div&gt;application_Id: ${}&lt;/div&gt;&lt;div&gt;title:${}&lt;/div&gt;&lt;div&gt;requested_By:&lt;span style=&quot;background-color: initial;&quot;&gt;${}&lt;/span&gt;&lt;/div&gt;&lt;div&gt;&lt;span style=&quot;background-color: initial;&quot;&gt;persona_Id:&lt;/span&gt;&lt;span style=&quot;background-color: initial;&quot;&gt;${}&lt;/span&gt;&lt;br&gt;&lt;/div&gt;&lt;div&gt;&lt;span style=&quot;background-color: initial;&quot;&gt;type_Id:&amp;nbsp;&lt;/span&gt;&lt;span style=&quot;background-color: initial;&quot;&gt;${&lt;/span&gt;&lt;span style=&quot;background-color: initial;&quot;&gt;Generic}&lt;/span&gt;&lt;span style=&quot;background-color: initial;&quot;&gt;&lt;br&gt;&lt;/span&gt;&lt;/div&gt;&lt;div&gt;&lt;div&gt;&lt;span style=&quot;background-color: initial;&quot;&gt;form_Id:&amp;nbsp;&lt;br&gt;&lt;/span&gt;&lt;/div&gt;&lt;div&gt;&lt;span style=&quot;background-color: initial;&quot;&gt;form_data: $&lt;br&gt;&lt;/span&gt;&lt;/div&gt;&lt;div&gt;&lt;span style=&quot;background-color: initial;&quot;&gt;&lt;span style=&quot;white-space: pre;&quot;&gt;&#x9;&lt;/span&gt;{&lt;/span&gt;&lt;/div&gt;&lt;div&gt;&lt;span style=&quot;background-color: initial;&quot;&gt;&lt;span style=&quot;white-space: pre;&quot;&gt;&#x9;&lt;/span&gt;&lt;span style=&quot;white-space: pre;&quot;&gt;&#x9;&lt;/span&gt;field1: ${},&lt;br&gt;&lt;/span&gt;&lt;/div&gt;&lt;div&gt;&lt;span style=&quot;background-color: initial;&quot;&gt;&lt;span style=&quot;white-space: pre;&quot;&gt;&#x9;&lt;/span&gt;&lt;span style=&quot;white-space: pre;&quot;&gt;&#x9;&lt;/span&gt;field2: ${},&lt;br&gt;&lt;/span&gt;&lt;/div&gt;&lt;div&gt;&lt;span style=&quot;background-color: initial;&quot;&gt;&lt;span style=&quot;white-space: pre;&quot;&gt;&#x9;&lt;/span&gt;}&lt;/span&gt;&lt;/div&gt;&lt;/div&gt;&lt;div&gt;apprvl_details:&lt;/div&gt;&lt;div&gt;&lt;span style=&quot;white-space: pre;&quot;&gt;&#x9;&lt;/span&gt;{&lt;/div&gt;&lt;div style=&quot;&quot;&gt;&lt;span style=&quot;white-space: pre;&quot;&gt;&lt;span style=&quot;white-space: pre;&quot;&gt;&#x9;&lt;span style=&quot;white-space: pre;&quot;&gt;&#x9;&lt;/span&gt;&lt;/span&gt;apprvl_status: &lt;/span&gt;&lt;span style=&quot;background-color: initial;&quot;&gt;${&lt;/span&gt;&lt;span style=&quot;white-space: pre; background-color: initial;&quot;&gt;Time Elapsed}&lt;/span&gt;&lt;/div&gt;&lt;div style=&quot;&quot;&gt;&lt;span style=&quot;white-space: pre;&quot;&gt;&lt;span style=&quot;white-space: pre;&quot;&gt;&#x9;&lt;/span&gt;&lt;span style=&quot;white-space: pre;&quot;&gt;&#x9;&lt;/span&gt;comment:&lt;/span&gt;&lt;span style=&quot;background-color: initial;&quot;&gt;${}&lt;/span&gt;&lt;/div&gt;&lt;div style=&quot;&quot;&gt;&lt;span style=&quot;white-space: pre;&quot;&gt;&lt;span style=&quot;white-space: pre;&quot;&gt;&#x9;&lt;/span&gt;&lt;span style=&quot;white-space: pre;&quot;&gt;&#x9;&lt;/span&gt;modified_time:&lt;/span&gt;&lt;span style=&quot;background-color: initial;&quot;&gt;${}&lt;/span&gt;&lt;/div&gt;&lt;div&gt;&lt;span style=&quot;white-space: pre;&quot;&gt;&#x9;&lt;/span&gt;}&lt;/div&gt;&lt;div&gt;&lt;br&gt;&lt;/div&gt;" style="text;html=1;align=left;verticalAlign=middle;whiteSpace=wrap;rounded=0;" vertex="1" parent="1">
          <mxGeometry x="-1870" y="-532.5" width="360" height="305" as="geometry" />
        </mxCell>
        <mxCell id="4whmI7BuCEZ9BgeUe7PW-67" value="&lt;b&gt;&lt;font style=&quot;font-size: 19px;&quot;&gt;apprvls/generic/status&lt;/font&gt;&lt;/b&gt;&lt;div&gt;&lt;br&gt;&lt;/div&gt;&lt;div&gt;apprvl_Id:&lt;br&gt;&lt;/div&gt;&lt;div&gt;application_Id: ${}&lt;/div&gt;&lt;div&gt;title:${}&lt;/div&gt;&lt;div&gt;requested_By:&lt;span style=&quot;background-color: initial;&quot;&gt;${}&lt;/span&gt;&lt;/div&gt;&lt;div&gt;&lt;span style=&quot;background-color: initial;&quot;&gt;persona_Id:&lt;/span&gt;&lt;span style=&quot;background-color: initial;&quot;&gt;${}&lt;/span&gt;&lt;br&gt;&lt;/div&gt;&lt;div&gt;&lt;span style=&quot;background-color: initial;&quot;&gt;type_Id:&amp;nbsp;&lt;/span&gt;&lt;span style=&quot;background-color: initial;&quot;&gt;${&lt;/span&gt;&lt;span style=&quot;background-color: initial;&quot;&gt;Generic}&lt;/span&gt;&lt;span style=&quot;background-color: initial;&quot;&gt;&lt;br&gt;&lt;/span&gt;&lt;/div&gt;&lt;div&gt;&lt;div&gt;&lt;span style=&quot;background-color: initial;&quot;&gt;form_Id:&amp;nbsp;&lt;br&gt;&lt;/span&gt;&lt;/div&gt;&lt;div&gt;&lt;span style=&quot;background-color: initial;&quot;&gt;form_data: $&lt;br&gt;&lt;/span&gt;&lt;/div&gt;&lt;div&gt;&lt;span style=&quot;background-color: initial;&quot;&gt;&lt;span style=&quot;white-space: pre;&quot;&gt;&#x9;&lt;/span&gt;{&lt;/span&gt;&lt;/div&gt;&lt;div&gt;&lt;span style=&quot;background-color: initial;&quot;&gt;&lt;span style=&quot;white-space: pre;&quot;&gt;&#x9;&lt;/span&gt;&lt;span style=&quot;white-space: pre;&quot;&gt;&#x9;&lt;/span&gt;field1: ${},&lt;br&gt;&lt;/span&gt;&lt;/div&gt;&lt;div&gt;&lt;span style=&quot;background-color: initial;&quot;&gt;&lt;span style=&quot;white-space: pre;&quot;&gt;&#x9;&lt;/span&gt;&lt;span style=&quot;white-space: pre;&quot;&gt;&#x9;&lt;/span&gt;field2: ${},&lt;br&gt;&lt;/span&gt;&lt;/div&gt;&lt;div&gt;&lt;span style=&quot;background-color: initial;&quot;&gt;&lt;span style=&quot;white-space: pre;&quot;&gt;&#x9;&lt;/span&gt;}&lt;/span&gt;&lt;/div&gt;&lt;/div&gt;&lt;div&gt;apprvl_details:&lt;/div&gt;&lt;div&gt;&lt;span style=&quot;white-space: pre;&quot;&gt;&#x9;&lt;/span&gt;{&lt;/div&gt;&lt;div style=&quot;&quot;&gt;&lt;span style=&quot;white-space: pre;&quot;&gt;&lt;span style=&quot;white-space: pre;&quot;&gt;&#x9;&lt;span style=&quot;white-space: pre;&quot;&gt;&#x9;&lt;/span&gt;&lt;/span&gt;apprvl_status: &lt;/span&gt;&lt;span style=&quot;background-color: initial;&quot;&gt;${Approved/Auto-Approved&lt;/span&gt;&lt;span style=&quot;white-space: pre; background-color: initial;&quot;&gt;}&lt;/span&gt;&lt;/div&gt;&lt;div style=&quot;&quot;&gt;&lt;span style=&quot;white-space: pre;&quot;&gt;&lt;span style=&quot;white-space: pre;&quot;&gt;&#x9;&lt;/span&gt;&lt;span style=&quot;white-space: pre;&quot;&gt;&#x9;&lt;/span&gt;comment:&lt;/span&gt;&lt;span style=&quot;background-color: initial;&quot;&gt;${}&lt;/span&gt;&lt;/div&gt;&lt;div style=&quot;&quot;&gt;&lt;span style=&quot;white-space: pre;&quot;&gt;&lt;span style=&quot;white-space: pre;&quot;&gt;&#x9;&lt;/span&gt;&lt;span style=&quot;white-space: pre;&quot;&gt;&#x9;&lt;/span&gt;modified_time:&lt;/span&gt;&lt;span style=&quot;background-color: initial;&quot;&gt;${}&lt;/span&gt;&lt;/div&gt;&lt;div&gt;&lt;span style=&quot;white-space: pre;&quot;&gt;&#x9;&lt;/span&gt;}&lt;/div&gt;&lt;div&gt;&lt;br&gt;&lt;/div&gt;" style="text;html=1;align=left;verticalAlign=middle;whiteSpace=wrap;rounded=0;" vertex="1" parent="1">
          <mxGeometry x="-1440" y="-550" width="360" height="305" as="geometry" />
        </mxCell>
        <mxCell id="4whmI7BuCEZ9BgeUe7PW-68" value="&lt;b&gt;&lt;font style=&quot;font-size: 19px;&quot;&gt;apprvls/generic/status&lt;/font&gt;&lt;/b&gt;&lt;div&gt;&lt;br&gt;&lt;/div&gt;&lt;div&gt;apprvl_Id:&lt;br&gt;&lt;/div&gt;&lt;div&gt;application_Id: ${}&lt;/div&gt;&lt;div&gt;title:${}&lt;/div&gt;&lt;div&gt;requested_By:&lt;span style=&quot;background-color: initial;&quot;&gt;${}&lt;/span&gt;&lt;/div&gt;&lt;div&gt;&lt;span style=&quot;background-color: initial;&quot;&gt;persona_Id:&lt;/span&gt;&lt;span style=&quot;background-color: initial;&quot;&gt;${}&lt;/span&gt;&lt;br&gt;&lt;/div&gt;&lt;div&gt;&lt;span style=&quot;background-color: initial;&quot;&gt;type_Id:&amp;nbsp;&lt;/span&gt;&lt;span style=&quot;background-color: initial;&quot;&gt;${&lt;/span&gt;&lt;span style=&quot;background-color: initial;&quot;&gt;Generic}&lt;/span&gt;&lt;span style=&quot;background-color: initial;&quot;&gt;&lt;br&gt;&lt;/span&gt;&lt;/div&gt;&lt;div&gt;&lt;div&gt;&lt;span style=&quot;background-color: initial;&quot;&gt;form_Id:&amp;nbsp;&lt;br&gt;&lt;/span&gt;&lt;/div&gt;&lt;div&gt;&lt;span style=&quot;background-color: initial;&quot;&gt;form_data: $&lt;br&gt;&lt;/span&gt;&lt;/div&gt;&lt;div&gt;&lt;span style=&quot;background-color: initial;&quot;&gt;&lt;span style=&quot;white-space: pre;&quot;&gt;&#x9;&lt;/span&gt;{&lt;/span&gt;&lt;/div&gt;&lt;div&gt;&lt;span style=&quot;background-color: initial;&quot;&gt;&lt;span style=&quot;white-space: pre;&quot;&gt;&#x9;&lt;/span&gt;&lt;span style=&quot;white-space: pre;&quot;&gt;&#x9;&lt;/span&gt;field1: ${},&lt;br&gt;&lt;/span&gt;&lt;/div&gt;&lt;div&gt;&lt;span style=&quot;background-color: initial;&quot;&gt;&lt;span style=&quot;white-space: pre;&quot;&gt;&#x9;&lt;/span&gt;&lt;span style=&quot;white-space: pre;&quot;&gt;&#x9;&lt;/span&gt;field2: ${},&lt;br&gt;&lt;/span&gt;&lt;/div&gt;&lt;div&gt;&lt;span style=&quot;background-color: initial;&quot;&gt;&lt;span style=&quot;white-space: pre;&quot;&gt;&#x9;&lt;/span&gt;}&lt;/span&gt;&lt;/div&gt;&lt;/div&gt;&lt;div&gt;apprvl_details:&lt;/div&gt;&lt;div&gt;&lt;span style=&quot;white-space: pre;&quot;&gt;&#x9;&lt;/span&gt;{&lt;/div&gt;&lt;div style=&quot;&quot;&gt;&lt;span style=&quot;white-space: pre;&quot;&gt;&lt;span style=&quot;white-space: pre;&quot;&gt;&#x9;&lt;span style=&quot;white-space: pre;&quot;&gt;&#x9;&lt;/span&gt;&lt;/span&gt;apprvl_status: &lt;/span&gt;&lt;span style=&quot;background-color: initial;&quot;&gt;${Rejected&lt;/span&gt;&lt;span style=&quot;white-space: pre; background-color: initial;&quot;&gt;}&lt;/span&gt;&lt;/div&gt;&lt;div style=&quot;&quot;&gt;&lt;span style=&quot;white-space: pre;&quot;&gt;&lt;span style=&quot;white-space: pre;&quot;&gt;&#x9;&lt;/span&gt;&lt;span style=&quot;white-space: pre;&quot;&gt;&#x9;&lt;/span&gt;comment:&lt;/span&gt;&lt;span style=&quot;background-color: initial;&quot;&gt;${}&lt;/span&gt;&lt;/div&gt;&lt;div style=&quot;&quot;&gt;&lt;span style=&quot;white-space: pre;&quot;&gt;&lt;span style=&quot;white-space: pre;&quot;&gt;&#x9;&lt;/span&gt;&lt;span style=&quot;white-space: pre;&quot;&gt;&#x9;&lt;/span&gt;modified_time:&lt;/span&gt;&lt;span style=&quot;background-color: initial;&quot;&gt;${}&lt;/span&gt;&lt;/div&gt;&lt;div&gt;&lt;span style=&quot;white-space: pre;&quot;&gt;&#x9;&lt;/span&gt;}&lt;/div&gt;&lt;div&gt;&lt;br&gt;&lt;/div&gt;" style="text;html=1;align=left;verticalAlign=middle;whiteSpace=wrap;rounded=0;" vertex="1" parent="1">
          <mxGeometry x="-1030" y="-550" width="360" height="305" as="geometry" />
        </mxCell>
        <mxCell id="4whmI7BuCEZ9BgeUe7PW-69" value="&lt;font style=&quot;font-size: 25px;&quot;&gt;5&lt;/font&gt;&lt;span style=&quot;color: rgba(0, 0, 0, 0); font-family: monospace; font-size: 0px; text-align: start; text-wrap: nowrap;&quot;&gt;%3CmxGraphModel%3E%3Croot%3E%3CmxCell%20id%3D%220%22%2F%3E%3CmxCell%20id%3D%221%22%20parent%3D%220%22%2F%3E%3CmxCell%20id%3D%222%22%20value%3D%22%26lt%3Bfont%20style%3D%26quot%3Bfont-size%3A%2025px%3B%26quot%3B%26gt%3B4%26lt%3B%2Ffont%26gt%3B%22%20style%3D%22ellipse%3BwhiteSpace%3Dwrap%3Bhtml%3D1%3Baspect%3Dfixed%3B%22%20vertex%3D%221%22%20parent%3D%221%22%3E%3CmxGeometry%20x%3D%22-1880%22%20y%3D%22-610%22%20width%3D%2260%22%20height%3D%2260%22%20as%3D%22geometry%22%2F%3E%3C%2FmxCell%3E%3C%2Froot%3E%3C%2FmxGraphModel%3E&lt;/span&gt;" style="ellipse;whiteSpace=wrap;html=1;aspect=fixed;" vertex="1" parent="1">
          <mxGeometry x="-1510" y="-600" width="60" height="60" as="geometry" />
        </mxCell>
        <mxCell id="4whmI7BuCEZ9BgeUe7PW-70" value="&lt;font style=&quot;font-size: 25px;&quot;&gt;6&lt;/font&gt;" style="ellipse;whiteSpace=wrap;html=1;aspect=fixed;" vertex="1" parent="1">
          <mxGeometry x="-1120" y="-590" width="60" height="60" as="geometry" />
        </mxCell>
        <mxCell id="4whmI7BuCEZ9BgeUe7PW-71" value="&lt;font style=&quot;font-size: 25px;&quot;&gt;7&lt;/font&gt;" style="ellipse;whiteSpace=wrap;html=1;aspect=fixed;" vertex="1" parent="1">
          <mxGeometry x="-1550" y="-150" width="60" height="60" as="geometry" />
        </mxCell>
        <mxCell id="4whmI7BuCEZ9BgeUe7PW-72" value="&lt;font style=&quot;font-size: 25px;&quot;&gt;8&lt;/font&gt;" style="ellipse;whiteSpace=wrap;html=1;aspect=fixed;" vertex="1" parent="1">
          <mxGeometry x="-1120" y="-155" width="60" height="60" as="geometry" />
        </mxCell>
        <mxCell id="4whmI7BuCEZ9BgeUe7PW-73" value="&lt;font style=&quot;font-size: 25px;&quot;&gt;9&lt;/font&gt;" style="ellipse;whiteSpace=wrap;html=1;aspect=fixed;" vertex="1" parent="1">
          <mxGeometry x="-670" y="-157.5" width="60" height="60" as="geometry" />
        </mxCell>
        <mxCell id="4whmI7BuCEZ9BgeUe7PW-74" value="&lt;b&gt;&lt;font style=&quot;font-size: 19px;&quot;&gt;apprvls/form/status&lt;/font&gt;&lt;/b&gt;&lt;div&gt;&lt;br&gt;&lt;/div&gt;&lt;div&gt;apprvl_Id: ${}&lt;br&gt;&lt;/div&gt;&lt;div&gt;application_Id:${}&lt;/div&gt;&lt;div&gt;title: ${}&lt;/div&gt;&lt;div&gt;requested_By: ${}&lt;/div&gt;&lt;div&gt;type_Id: ${Form}&lt;/div&gt;&lt;div&gt;form_Id: ${}&lt;/div&gt;&lt;div&gt;&lt;div&gt;&lt;span style=&quot;white-space: pre;&quot;&gt;form_d&lt;/span&gt;ata:$&lt;span style=&quot;white-space: pre;&quot;&gt;&#x9;&lt;/span&gt;&lt;span style=&quot;white-space: pre;&quot;&gt;&#x9;&lt;/span&gt;&lt;/div&gt;&lt;div&gt;&lt;span style=&quot;white-space: pre;&quot;&gt;&#x9;&lt;/span&gt;&lt;span style=&quot;white-space: pre;&quot;&gt;&#x9;&lt;/span&gt;{&lt;/div&gt;&lt;div&gt;&lt;span style=&quot;white-space: pre;&quot;&gt;&#x9;&lt;/span&gt;&lt;span style=&quot;white-space: pre;&quot;&gt;&#x9;&lt;/span&gt;&lt;span style=&quot;white-space: pre;&quot;&gt;&#x9;&lt;/span&gt;field1: ${},&lt;br&gt;&lt;/div&gt;&lt;div&gt;&lt;span style=&quot;white-space: pre;&quot;&gt;&#x9;&lt;/span&gt;&lt;span style=&quot;white-space: pre;&quot;&gt;&#x9;&lt;/span&gt;&lt;span style=&quot;white-space: pre;&quot;&gt;&#x9;&lt;/span&gt;&lt;span style=&quot;background-color: initial;&quot;&gt;field2: ${},&lt;/span&gt;&lt;/div&gt;&lt;div&gt;&lt;span style=&quot;background-color: initial; white-space: pre;&quot;&gt;&#x9;&lt;/span&gt;&lt;span style=&quot;background-color: initial; white-space: pre;&quot;&gt;&#x9;&lt;/span&gt;&lt;span style=&quot;background-color: initial; white-space: pre;&quot;&gt;&#x9;&lt;/span&gt;&lt;span style=&quot;background-color: initial;&quot;&gt;field3: ${},&lt;/span&gt;&lt;/div&gt;&lt;div&gt;&lt;span style=&quot;background-color: initial;&quot;&gt;&lt;span style=&quot;white-space: pre;&quot;&gt;&#x9;&lt;/span&gt;&lt;span style=&quot;white-space: pre;&quot;&gt;&#x9;&lt;/span&gt;&lt;span style=&quot;white-space: pre;&quot;&gt;&#x9;&lt;/span&gt;field4: ${}&lt;br&gt;&lt;/span&gt;&lt;/div&gt;&lt;div&gt;&lt;span style=&quot;background-color: initial;&quot;&gt;&lt;span style=&quot;white-space: pre;&quot;&gt;&#x9;&lt;/span&gt;&lt;span style=&quot;white-space: pre;&quot;&gt;&#x9;&lt;span style=&quot;white-space: pre;&quot;&gt;&#x9;&lt;/span&gt;&lt;span style=&quot;white-space: pre;&quot;&gt;&#x9;&lt;/span&gt;&lt;/span&gt;&lt;span style=&quot;white-space: pre;&quot;&gt;&#x9;&lt;/span&gt;&lt;span style=&quot;white-space: pre;&quot;&gt;&#x9;&lt;/span&gt;&lt;br&gt;&lt;/span&gt;&lt;/div&gt;&lt;div&gt;&lt;span style=&quot;white-space: pre;&quot;&gt;&#x9;&lt;/span&gt;&lt;span style=&quot;white-space: pre;&quot;&gt;&#x9;&lt;/span&gt;}&lt;/div&gt;&lt;/div&gt;&lt;div&gt;persona_Id:&lt;/div&gt;&lt;div&gt;apprvl_details:&lt;/div&gt;&lt;div&gt;&lt;span style=&quot;white-space: pre;&quot;&gt;&#x9;&lt;/span&gt;{&lt;/div&gt;&lt;div style=&quot;&quot;&gt;&lt;span style=&quot;white-space: pre;&quot;&gt;&lt;span style=&quot;white-space: pre;&quot;&gt;&#x9;&lt;span style=&quot;white-space: pre;&quot;&gt;&#x9;&lt;/span&gt;&lt;/span&gt;apprvl_status: ${Rejected}&#x9;&lt;/span&gt;&lt;br&gt;&lt;/div&gt;&lt;div style=&quot;&quot;&gt;&lt;span style=&quot;white-space: pre;&quot;&gt;&lt;span style=&quot;white-space: pre;&quot;&gt;&#x9;&lt;/span&gt;&lt;span style=&quot;white-space: pre;&quot;&gt;&#x9;&lt;/span&gt;comment: ${}&lt;br&gt;&lt;/span&gt;&lt;/div&gt;&lt;div style=&quot;&quot;&gt;&lt;span style=&quot;white-space: pre;&quot;&gt;&lt;span style=&quot;white-space: pre;&quot;&gt;&#x9;&lt;/span&gt;&lt;span style=&quot;white-space: pre;&quot;&gt;&#x9;&lt;/span&gt;modified_time: ${}&lt;br&gt;&lt;/span&gt;&lt;/div&gt;&lt;div&gt;&lt;span style=&quot;white-space: pre;&quot;&gt;&#x9;&lt;/span&gt;}&lt;/div&gt;&lt;div&gt;&lt;br&gt;&lt;/div&gt;" style="text;html=1;align=left;verticalAlign=middle;whiteSpace=wrap;rounded=0;" vertex="1" parent="1">
          <mxGeometry x="-1475" y="-115" width="385" height="365" as="geometry" />
        </mxCell>
        <mxCell id="4whmI7BuCEZ9BgeUe7PW-75" value="&lt;b&gt;&lt;font style=&quot;font-size: 19px;&quot;&gt;apprvls/form/status&lt;/font&gt;&lt;/b&gt;&lt;div&gt;&lt;br&gt;&lt;/div&gt;&lt;div&gt;apprvl_Id: ${}&lt;br&gt;&lt;/div&gt;&lt;div&gt;application_Id:${}&lt;/div&gt;&lt;div&gt;title: ${}&lt;/div&gt;&lt;div&gt;requested_By: ${}&lt;/div&gt;&lt;div&gt;type_Id: ${Form}&lt;/div&gt;&lt;div&gt;form_Id: ${}&lt;/div&gt;&lt;div&gt;&lt;div&gt;&lt;span style=&quot;white-space: pre;&quot;&gt;form_d&lt;/span&gt;ata:$&lt;span style=&quot;white-space: pre;&quot;&gt;&#x9;&lt;/span&gt;&lt;span style=&quot;white-space: pre;&quot;&gt;&#x9;&lt;/span&gt;&lt;/div&gt;&lt;div&gt;&lt;span style=&quot;white-space: pre;&quot;&gt;&#x9;&lt;/span&gt;&lt;span style=&quot;white-space: pre;&quot;&gt;&#x9;&lt;/span&gt;{&lt;/div&gt;&lt;div&gt;&lt;span style=&quot;white-space: pre;&quot;&gt;&#x9;&lt;/span&gt;&lt;span style=&quot;white-space: pre;&quot;&gt;&#x9;&lt;/span&gt;&lt;span style=&quot;white-space: pre;&quot;&gt;&#x9;&lt;/span&gt;field1: ${},&lt;br&gt;&lt;/div&gt;&lt;div&gt;&lt;span style=&quot;white-space: pre;&quot;&gt;&#x9;&lt;/span&gt;&lt;span style=&quot;white-space: pre;&quot;&gt;&#x9;&lt;/span&gt;&lt;span style=&quot;white-space: pre;&quot;&gt;&#x9;&lt;/span&gt;&lt;span style=&quot;background-color: initial;&quot;&gt;field2: ${},&lt;/span&gt;&lt;/div&gt;&lt;div&gt;&lt;span style=&quot;background-color: initial; white-space: pre;&quot;&gt;&#x9;&lt;/span&gt;&lt;span style=&quot;background-color: initial; white-space: pre;&quot;&gt;&#x9;&lt;/span&gt;&lt;span style=&quot;background-color: initial; white-space: pre;&quot;&gt;&#x9;&lt;/span&gt;&lt;span style=&quot;background-color: initial;&quot;&gt;field3: ${},&lt;/span&gt;&lt;/div&gt;&lt;div&gt;&lt;span style=&quot;background-color: initial;&quot;&gt;&lt;span style=&quot;white-space: pre;&quot;&gt;&#x9;&lt;/span&gt;&lt;span style=&quot;white-space: pre;&quot;&gt;&#x9;&lt;/span&gt;&lt;span style=&quot;white-space: pre;&quot;&gt;&#x9;&lt;/span&gt;field4: ${}&lt;br&gt;&lt;/span&gt;&lt;/div&gt;&lt;div&gt;&lt;span style=&quot;background-color: initial;&quot;&gt;&lt;span style=&quot;white-space: pre;&quot;&gt;&#x9;&lt;/span&gt;&lt;span style=&quot;white-space: pre;&quot;&gt;&#x9;&lt;span style=&quot;white-space: pre;&quot;&gt;&#x9;&lt;/span&gt;&lt;span style=&quot;white-space: pre;&quot;&gt;&#x9;&lt;/span&gt;&lt;/span&gt;&lt;span style=&quot;white-space: pre;&quot;&gt;&#x9;&lt;/span&gt;&lt;span style=&quot;white-space: pre;&quot;&gt;&#x9;&lt;/span&gt;&lt;br&gt;&lt;/span&gt;&lt;/div&gt;&lt;div&gt;&lt;span style=&quot;white-space: pre;&quot;&gt;&#x9;&lt;/span&gt;&lt;span style=&quot;white-space: pre;&quot;&gt;&#x9;&lt;/span&gt;}&lt;/div&gt;&lt;/div&gt;&lt;div&gt;persona_Id:&lt;/div&gt;&lt;div&gt;apprvl_details:&lt;/div&gt;&lt;div&gt;&lt;span style=&quot;white-space: pre;&quot;&gt;&#x9;&lt;/span&gt;{&lt;/div&gt;&lt;div style=&quot;&quot;&gt;&lt;span style=&quot;white-space: pre;&quot;&gt;&lt;span style=&quot;white-space: pre;&quot;&gt;&#x9;&lt;span style=&quot;white-space: pre;&quot;&gt;&#x9;&lt;/span&gt;&lt;/span&gt;apprvl_status: ${Approved}&#x9;&lt;/span&gt;&lt;br&gt;&lt;/div&gt;&lt;div style=&quot;&quot;&gt;&lt;span style=&quot;white-space: pre;&quot;&gt;&lt;span style=&quot;white-space: pre;&quot;&gt;&#x9;&lt;/span&gt;&lt;span style=&quot;white-space: pre;&quot;&gt;&#x9;&lt;/span&gt;comment: ${}&lt;br&gt;&lt;/span&gt;&lt;/div&gt;&lt;div style=&quot;&quot;&gt;&lt;span style=&quot;white-space: pre;&quot;&gt;&lt;span style=&quot;white-space: pre;&quot;&gt;&#x9;&lt;/span&gt;&lt;span style=&quot;white-space: pre;&quot;&gt;&#x9;&lt;/span&gt;modified_time: ${}&lt;br&gt;&lt;/span&gt;&lt;/div&gt;&lt;div&gt;&lt;span style=&quot;white-space: pre;&quot;&gt;&#x9;&lt;/span&gt;}&lt;/div&gt;&lt;div&gt;&lt;br&gt;&lt;/div&gt;" style="text;html=1;align=left;verticalAlign=middle;whiteSpace=wrap;rounded=0;" vertex="1" parent="1">
          <mxGeometry x="-1040" y="-115" width="385" height="365" as="geometry" />
        </mxCell>
        <mxCell id="4whmI7BuCEZ9BgeUe7PW-76" value="&lt;b&gt;&lt;font style=&quot;font-size: 19px;&quot;&gt;apprvls/form/status&lt;/font&gt;&lt;/b&gt;&lt;div&gt;&lt;br&gt;&lt;/div&gt;&lt;div&gt;apprvl_Id: ${}&lt;br&gt;&lt;/div&gt;&lt;div&gt;application_Id:${}&lt;/div&gt;&lt;div&gt;title: ${}&lt;/div&gt;&lt;div&gt;requested_By: ${}&lt;/div&gt;&lt;div&gt;type_Id: ${Form}&lt;/div&gt;&lt;div&gt;form_Id: ${}&lt;/div&gt;&lt;div&gt;&lt;div&gt;&lt;span style=&quot;white-space: pre;&quot;&gt;form_d&lt;/span&gt;ata:$&lt;span style=&quot;white-space: pre;&quot;&gt;&#x9;&lt;/span&gt;&lt;span style=&quot;white-space: pre;&quot;&gt;&#x9;&lt;/span&gt;&lt;/div&gt;&lt;div&gt;&lt;span style=&quot;white-space: pre;&quot;&gt;&#x9;&lt;/span&gt;&lt;span style=&quot;white-space: pre;&quot;&gt;&#x9;&lt;/span&gt;{&lt;/div&gt;&lt;div&gt;&lt;span style=&quot;white-space: pre;&quot;&gt;&#x9;&lt;/span&gt;&lt;span style=&quot;white-space: pre;&quot;&gt;&#x9;&lt;/span&gt;&lt;span style=&quot;white-space: pre;&quot;&gt;&#x9;&lt;/span&gt;field1: ${},&lt;br&gt;&lt;/div&gt;&lt;div&gt;&lt;span style=&quot;white-space: pre;&quot;&gt;&#x9;&lt;/span&gt;&lt;span style=&quot;white-space: pre;&quot;&gt;&#x9;&lt;/span&gt;&lt;span style=&quot;white-space: pre;&quot;&gt;&#x9;&lt;/span&gt;&lt;span style=&quot;background-color: initial;&quot;&gt;field2: ${},&lt;/span&gt;&lt;/div&gt;&lt;div&gt;&lt;span style=&quot;background-color: initial; white-space: pre;&quot;&gt;&#x9;&lt;/span&gt;&lt;span style=&quot;background-color: initial; white-space: pre;&quot;&gt;&#x9;&lt;/span&gt;&lt;span style=&quot;background-color: initial; white-space: pre;&quot;&gt;&#x9;&lt;/span&gt;&lt;span style=&quot;background-color: initial;&quot;&gt;field3: ${},&lt;/span&gt;&lt;/div&gt;&lt;div&gt;&lt;span style=&quot;background-color: initial;&quot;&gt;&lt;span style=&quot;white-space: pre;&quot;&gt;&#x9;&lt;/span&gt;&lt;span style=&quot;white-space: pre;&quot;&gt;&#x9;&lt;/span&gt;&lt;span style=&quot;white-space: pre;&quot;&gt;&#x9;&lt;/span&gt;field4: ${}&lt;br&gt;&lt;/span&gt;&lt;/div&gt;&lt;div&gt;&lt;span style=&quot;background-color: initial;&quot;&gt;&lt;span style=&quot;white-space: pre;&quot;&gt;&#x9;&lt;/span&gt;&lt;span style=&quot;white-space: pre;&quot;&gt;&#x9;&lt;span style=&quot;white-space: pre;&quot;&gt;&#x9;&lt;/span&gt;&lt;span style=&quot;white-space: pre;&quot;&gt;&#x9;&lt;/span&gt;&lt;/span&gt;&lt;span style=&quot;white-space: pre;&quot;&gt;&#x9;&lt;/span&gt;&lt;span style=&quot;white-space: pre;&quot;&gt;&#x9;&lt;/span&gt;&lt;br&gt;&lt;/span&gt;&lt;/div&gt;&lt;div&gt;&lt;span style=&quot;white-space: pre;&quot;&gt;&#x9;&lt;/span&gt;&lt;span style=&quot;white-space: pre;&quot;&gt;&#x9;&lt;/span&gt;}&lt;/div&gt;&lt;/div&gt;&lt;div&gt;persona_Id:&lt;/div&gt;&lt;div&gt;apprvl_details:&lt;/div&gt;&lt;div&gt;&lt;span style=&quot;white-space: pre;&quot;&gt;&#x9;&lt;/span&gt;{&lt;/div&gt;&lt;div style=&quot;&quot;&gt;&lt;span style=&quot;white-space: pre;&quot;&gt;&lt;span style=&quot;white-space: pre;&quot;&gt;&#x9;&lt;span style=&quot;white-space: pre;&quot;&gt;&#x9;&lt;/span&gt;&lt;/span&gt;apprvl_status: ${Time Elapsed}&#x9;&lt;/span&gt;&lt;br&gt;&lt;/div&gt;&lt;div style=&quot;&quot;&gt;&lt;span style=&quot;white-space: pre;&quot;&gt;&lt;span style=&quot;white-space: pre;&quot;&gt;&#x9;&lt;/span&gt;&lt;span style=&quot;white-space: pre;&quot;&gt;&#x9;&lt;/span&gt;comment: ${}&lt;br&gt;&lt;/span&gt;&lt;/div&gt;&lt;div style=&quot;&quot;&gt;&lt;span style=&quot;white-space: pre;&quot;&gt;&lt;span style=&quot;white-space: pre;&quot;&gt;&#x9;&lt;/span&gt;&lt;span style=&quot;white-space: pre;&quot;&gt;&#x9;&lt;/span&gt;modified_time: ${}&lt;br&gt;&lt;/span&gt;&lt;/div&gt;&lt;div&gt;&lt;span style=&quot;white-space: pre;&quot;&gt;&#x9;&lt;/span&gt;}&lt;/div&gt;&lt;div&gt;&lt;br&gt;&lt;/div&gt;" style="text;html=1;align=left;verticalAlign=middle;whiteSpace=wrap;rounded=0;" vertex="1" parent="1">
          <mxGeometry x="-600" y="-122.5" width="385" height="365" as="geometry" />
        </mxCell>
        <mxCell id="4whmI7BuCEZ9BgeUe7PW-77" value="" style="whiteSpace=wrap;html=1;aspect=fixed;" vertex="1" parent="1">
          <mxGeometry x="1710" y="-640" width="3070" height="3070" as="geometry" />
        </mxCell>
        <mxCell id="4whmI7BuCEZ9BgeUe7PW-84" style="edgeStyle=orthogonalEdgeStyle;rounded=0;orthogonalLoop=1;jettySize=auto;html=1;entryX=0;entryY=0.5;entryDx=0;entryDy=0;" edge="1" parent="1" source="4whmI7BuCEZ9BgeUe7PW-78" target="4whmI7BuCEZ9BgeUe7PW-79">
          <mxGeometry relative="1" as="geometry" />
        </mxCell>
        <mxCell id="4whmI7BuCEZ9BgeUe7PW-78" value="&lt;br&gt;&lt;span data-meta=&quot;&lt;--(miro-data-v1)tl2kroutqq+gnq+gn111oZynrqBnXZ2qnK2fhJ9ddV2wk6WRiaWsjYqxnnhdZ12fnK+cXXW2XaqdpaCer65ddZa2XbKkn6Kgr3+cr5xddbZdpa6qqV11tl2upLWgXXW2XbKkn6+jXXVscm9yaWtvb2tucHR0cW90bGddo6CkoqOvXXVscWtuaW10dHBzbXN0b25ub7hnXZqrqq6kr6SqqV11tl2qoaGuoK+Ls111tl2zXXVrZ120XXVruLhnXa6enKegXXW2Xa6enKegXXVsuGddraCnnK+ksaCOnpynoF11bGddraqvnK+kqqlddbZdraqvnK+kqqlddWu4Z12toKecr6SxoI2qr5yvpKqpXXVrZ12aq5ytoKmvXXWpsKenZ12voLOvXXVdd6t5fIuLrmqIqp+wp6Cud2qreV1nXa6vtKegXXVdtpddrq+XXXVuZ5ddrq6XXXVtZ5ddrp6XXXVscmxrcWxzZ5ddnZ6XXXVobGeXXZ2ql111bGeXXZ2tnpdddWxybGtxbHNnl12drbKXXXVta2eXXZ2tqpdddWxnl12dra6XXXVtZ5ddoaGpl111l12Kq6CpjpyprpddZ5ddr56XXXVscmxrcWxzZ5ddr66el111bGeXXa+cl111l12el11nl12vnLGXXXWXXaiXXWeXXaGul111bW5tZ5ddnZdddWtnl12kl111a2eXXbCXXXVrZ5ddrpdddWtnl12drp6XXXVsZ5ddkYCNl111bWlsZ5ddo6eXXXVruF1nXa6jnKugXXVdbl24Z12vtKugXXVdrqOcq6BduGddr7SroF11bG9nXaSfXXVrZ12kqaSvpJynhJ9ddV1ub3BzcnFvcHNua3Fsb210cm9sXbiYZ12ooK+cXXW2uLhnXbGgra6kqqlddW1nXaOqrq9ddV2opK2qaZ6qqF24(/miro-data-v1)--&gt;&quot;&gt;&lt;/span&gt;&lt;div&gt;&lt;div&gt;&lt;div&gt;APPs/Modules&lt;/div&gt;&lt;/div&gt;&lt;/div&gt;" style="rounded=0;whiteSpace=wrap;html=1;fillColor=#e1d5e7;strokeColor=#9673a6;" vertex="1" parent="1">
          <mxGeometry x="1760" y="710" width="100" height="50" as="geometry" />
        </mxCell>
        <mxCell id="4whmI7BuCEZ9BgeUe7PW-86" style="edgeStyle=orthogonalEdgeStyle;rounded=0;orthogonalLoop=1;jettySize=auto;html=1;" edge="1" parent="1" source="4whmI7BuCEZ9BgeUe7PW-79" target="4whmI7BuCEZ9BgeUe7PW-85">
          <mxGeometry relative="1" as="geometry" />
        </mxCell>
        <mxCell id="4whmI7BuCEZ9BgeUe7PW-87" style="edgeStyle=orthogonalEdgeStyle;rounded=0;orthogonalLoop=1;jettySize=auto;html=1;" edge="1" parent="1" source="4whmI7BuCEZ9BgeUe7PW-79" target="4whmI7BuCEZ9BgeUe7PW-80">
          <mxGeometry relative="1" as="geometry" />
        </mxCell>
        <mxCell id="4whmI7BuCEZ9BgeUe7PW-79" value="Registering for Task" style="rounded=1;whiteSpace=wrap;html=1;" vertex="1" parent="1">
          <mxGeometry x="1990" y="705" width="120" height="60" as="geometry" />
        </mxCell>
        <mxCell id="4whmI7BuCEZ9BgeUe7PW-88" style="edgeStyle=orthogonalEdgeStyle;rounded=0;orthogonalLoop=1;jettySize=auto;html=1;" edge="1" parent="1" source="4whmI7BuCEZ9BgeUe7PW-80" target="4whmI7BuCEZ9BgeUe7PW-81">
          <mxGeometry relative="1" as="geometry" />
        </mxCell>
        <mxCell id="4whmI7BuCEZ9BgeUe7PW-89" style="edgeStyle=orthogonalEdgeStyle;rounded=0;orthogonalLoop=1;jettySize=auto;html=1;" edge="1" parent="1" source="4whmI7BuCEZ9BgeUe7PW-80" target="4whmI7BuCEZ9BgeUe7PW-82">
          <mxGeometry relative="1" as="geometry" />
        </mxCell>
        <mxCell id="4whmI7BuCEZ9BgeUe7PW-80" value="Status" style="rhombus;whiteSpace=wrap;html=1;rounded=1;" vertex="1" parent="1">
          <mxGeometry x="2460" y="505" width="80" height="80" as="geometry" />
        </mxCell>
        <mxCell id="4whmI7BuCEZ9BgeUe7PW-91" style="edgeStyle=orthogonalEdgeStyle;rounded=0;orthogonalLoop=1;jettySize=auto;html=1;entryX=0;entryY=0.5;entryDx=0;entryDy=0;" edge="1" parent="1" source="4whmI7BuCEZ9BgeUe7PW-81" target="4whmI7BuCEZ9BgeUe7PW-83">
          <mxGeometry relative="1" as="geometry">
            <Array as="points">
              <mxPoint x="2300" y="395" />
            </Array>
          </mxGeometry>
        </mxCell>
        <mxCell id="4whmI7BuCEZ9BgeUe7PW-81" value="Send Update Time Elapsed" style="whiteSpace=wrap;html=1;rounded=1;fillColor=#f8cecc;strokeColor=#b85450;" vertex="1" parent="1">
          <mxGeometry x="2240" y="515" width="120" height="60" as="geometry" />
        </mxCell>
        <mxCell id="4whmI7BuCEZ9BgeUe7PW-90" style="edgeStyle=orthogonalEdgeStyle;rounded=0;orthogonalLoop=1;jettySize=auto;html=1;entryX=1;entryY=0.5;entryDx=0;entryDy=0;" edge="1" parent="1" source="4whmI7BuCEZ9BgeUe7PW-82" target="4whmI7BuCEZ9BgeUe7PW-83">
          <mxGeometry relative="1" as="geometry">
            <Array as="points">
              <mxPoint x="2750" y="395" />
            </Array>
          </mxGeometry>
        </mxCell>
        <mxCell id="4whmI7BuCEZ9BgeUe7PW-82" value="Send Update Completed" style="whiteSpace=wrap;html=1;rounded=1;fillColor=#008a00;fontColor=#ffffff;strokeColor=#005700;" vertex="1" parent="1">
          <mxGeometry x="2690" y="515" width="120" height="60" as="geometry" />
        </mxCell>
        <mxCell id="4whmI7BuCEZ9BgeUe7PW-83" value="&lt;br&gt;&lt;span data-meta=&quot;&lt;--(miro-data-v1)tl2kroutqq+gnq+gn111oZynrqBnXZ2qnK2fhJ9ddV2wk6WRiaWsjYqxnnhdZ12fnK+cXXW2XaqdpaCer65ddZa2XbKkn6Kgr3+cr5xddbZdpa6qqV11tl2upLWgXXW2XbKkn6+jXXVscm9yaWtvb2tucHR0cW90bGddo6CkoqOvXXVscWtuaW10dHBzbXN0b25ub7hnXZqrqq6kr6SqqV11tl2qoaGuoK+Ls111tl2zXXVrZ120XXVruLhnXa6enKegXXW2Xa6enKegXXVsuGddraCnnK+ksaCOnpynoF11bGddraqvnK+kqqlddbZdraqvnK+kqqlddWu4Z12toKecr6SxoI2qr5yvpKqpXXVrZ12aq5ytoKmvXXWpsKenZ12voLOvXXVdd6t5fIuLrmqIqp+wp6Cud2qreV1nXa6vtKegXXVdtpddrq+XXXVuZ5ddrq6XXXVtZ5ddrp6XXXVscmxrcWxzZ5ddnZ6XXXVobGeXXZ2ql111bGeXXZ2tnpdddWxybGtxbHNnl12drbKXXXVta2eXXZ2tqpdddWxnl12dra6XXXVtZ5ddoaGpl111l12Kq6CpjpyprpddZ5ddr56XXXVscmxrcWxzZ5ddr66el111bGeXXa+cl111l12el11nl12vnLGXXXWXXaiXXWeXXaGul111bW5tZ5ddnZdddWtnl12kl111a2eXXbCXXXVrZ5ddrpdddWtnl12drp6XXXVsZ5ddkYCNl111bWlsZ5ddo6eXXXVruF1nXa6jnKugXXVdbl24Z12vtKugXXVdrqOcq6BduGddr7SroF11bG9nXaSfXXVrZ12kqaSvpJynhJ9ddV1ub3BzcnFvcHNua3Fsb210cm9sXbiYZ12ooK+cXXW2uLhnXbGgra6kqqlddW1nXaOqrq9ddV2opK2qaZ6qqF24(/miro-data-v1)--&gt;&quot;&gt;&lt;/span&gt;&lt;div&gt;&lt;div&gt;&lt;div&gt;APPs/Modules&lt;/div&gt;&lt;/div&gt;&lt;/div&gt;" style="rounded=0;whiteSpace=wrap;html=1;fillColor=#e1d5e7;strokeColor=#9673a6;" vertex="1" parent="1">
          <mxGeometry x="2450" y="370" width="100" height="50" as="geometry" />
        </mxCell>
        <mxCell id="4whmI7BuCEZ9BgeUe7PW-95" style="edgeStyle=orthogonalEdgeStyle;rounded=0;orthogonalLoop=1;jettySize=auto;html=1;" edge="1" parent="1" source="4whmI7BuCEZ9BgeUe7PW-85" target="4whmI7BuCEZ9BgeUe7PW-92">
          <mxGeometry relative="1" as="geometry" />
        </mxCell>
        <mxCell id="4whmI7BuCEZ9BgeUe7PW-96" style="edgeStyle=orthogonalEdgeStyle;rounded=0;orthogonalLoop=1;jettySize=auto;html=1;" edge="1" parent="1" source="4whmI7BuCEZ9BgeUe7PW-85" target="4whmI7BuCEZ9BgeUe7PW-93">
          <mxGeometry relative="1" as="geometry" />
        </mxCell>
        <mxCell id="4whmI7BuCEZ9BgeUe7PW-85" value="Status" style="rhombus;whiteSpace=wrap;html=1;rounded=1;" vertex="1" parent="1">
          <mxGeometry x="2460" y="885" width="80" height="80" as="geometry" />
        </mxCell>
        <mxCell id="4whmI7BuCEZ9BgeUe7PW-98" style="edgeStyle=orthogonalEdgeStyle;rounded=0;orthogonalLoop=1;jettySize=auto;html=1;entryX=0;entryY=0.5;entryDx=0;entryDy=0;" edge="1" parent="1" source="4whmI7BuCEZ9BgeUe7PW-92" target="4whmI7BuCEZ9BgeUe7PW-94">
          <mxGeometry relative="1" as="geometry">
            <Array as="points">
              <mxPoint x="2290" y="1085" />
            </Array>
          </mxGeometry>
        </mxCell>
        <mxCell id="4whmI7BuCEZ9BgeUe7PW-92" value="Send Update Time Elapsed" style="whiteSpace=wrap;html=1;rounded=1;fillColor=#f8cecc;strokeColor=#b85450;" vertex="1" parent="1">
          <mxGeometry x="2230" y="895" width="120" height="60" as="geometry" />
        </mxCell>
        <mxCell id="4whmI7BuCEZ9BgeUe7PW-97" style="edgeStyle=orthogonalEdgeStyle;rounded=0;orthogonalLoop=1;jettySize=auto;html=1;entryX=1;entryY=0.5;entryDx=0;entryDy=0;" edge="1" parent="1" source="4whmI7BuCEZ9BgeUe7PW-93" target="4whmI7BuCEZ9BgeUe7PW-94">
          <mxGeometry relative="1" as="geometry">
            <Array as="points">
              <mxPoint x="2750" y="1085" />
            </Array>
          </mxGeometry>
        </mxCell>
        <mxCell id="4whmI7BuCEZ9BgeUe7PW-93" value="Send Update Completed" style="whiteSpace=wrap;html=1;rounded=1;fillColor=#008a00;fontColor=#ffffff;strokeColor=#005700;" vertex="1" parent="1">
          <mxGeometry x="2690" y="895" width="120" height="60" as="geometry" />
        </mxCell>
        <mxCell id="4whmI7BuCEZ9BgeUe7PW-94" value="&lt;br&gt;&lt;span data-meta=&quot;&lt;--(miro-data-v1)tl2kroutqq+gnq+gn111oZynrqBnXZ2qnK2fhJ9ddV2wk6WRiaWsjYqxnnhdZ12fnK+cXXW2XaqdpaCer65ddZa2XbKkn6Kgr3+cr5xddbZdpa6qqV11tl2upLWgXXW2XbKkn6+jXXVscm9yaWtvb2tucHR0cW90bGddo6CkoqOvXXVscWtuaW10dHBzbXN0b25ub7hnXZqrqq6kr6SqqV11tl2qoaGuoK+Ls111tl2zXXVrZ120XXVruLhnXa6enKegXXW2Xa6enKegXXVsuGddraCnnK+ksaCOnpynoF11bGddraqvnK+kqqlddbZdraqvnK+kqqlddWu4Z12toKecr6SxoI2qr5yvpKqpXXVrZ12aq5ytoKmvXXWpsKenZ12voLOvXXVdd6t5fIuLrmqIqp+wp6Cud2qreV1nXa6vtKegXXVdtpddrq+XXXVuZ5ddrq6XXXVtZ5ddrp6XXXVscmxrcWxzZ5ddnZ6XXXVobGeXXZ2ql111bGeXXZ2tnpdddWxybGtxbHNnl12drbKXXXVta2eXXZ2tqpdddWxnl12dra6XXXVtZ5ddoaGpl111l12Kq6CpjpyprpddZ5ddr56XXXVscmxrcWxzZ5ddr66el111bGeXXa+cl111l12el11nl12vnLGXXXWXXaiXXWeXXaGul111bW5tZ5ddnZdddWtnl12kl111a2eXXbCXXXVrZ5ddrpdddWtnl12drp6XXXVsZ5ddkYCNl111bWlsZ5ddo6eXXXVruF1nXa6jnKugXXVdbl24Z12vtKugXXVdrqOcq6BduGddr7SroF11bG9nXaSfXXVrZ12kqaSvpJynhJ9ddV1ub3BzcnFvcHNua3Fsb210cm9sXbiYZ12ooK+cXXW2uLhnXbGgra6kqqlddW1nXaOqrq9ddV2opK2qaZ6qqF24(/miro-data-v1)--&gt;&quot;&gt;&lt;/span&gt;&lt;div&gt;&lt;div&gt;&lt;div&gt;APPs/Modules&lt;/div&gt;&lt;/div&gt;&lt;/div&gt;" style="rounded=0;whiteSpace=wrap;html=1;fillColor=#e1d5e7;strokeColor=#9673a6;" vertex="1" parent="1">
          <mxGeometry x="2450" y="1060" width="100" height="50" as="geometry" />
        </mxCell>
        <mxCell id="4whmI7BuCEZ9BgeUe7PW-99" value="&lt;font style=&quot;font-size: 25px;&quot;&gt;1&lt;/font&gt;" style="ellipse;whiteSpace=wrap;html=1;aspect=fixed;" vertex="1" parent="1">
          <mxGeometry x="1890" y="670" width="60" height="60" as="geometry" />
        </mxCell>
        <mxCell id="4whmI7BuCEZ9BgeUe7PW-100" value="&lt;font style=&quot;font-size: 25px;&quot;&gt;2&lt;/font&gt;" style="ellipse;whiteSpace=wrap;html=1;aspect=fixed;" vertex="1" parent="1">
          <mxGeometry x="2510" y="640" width="60" height="60" as="geometry" />
        </mxCell>
        <mxCell id="4whmI7BuCEZ9BgeUe7PW-101" value="&lt;font style=&quot;font-size: 25px;&quot;&gt;3&lt;/font&gt;" style="ellipse;whiteSpace=wrap;html=1;aspect=fixed;" vertex="1" parent="1">
          <mxGeometry x="2510" y="780" width="60" height="60" as="geometry" />
        </mxCell>
        <mxCell id="4whmI7BuCEZ9BgeUe7PW-102" value="&lt;font style=&quot;font-size: 25px;&quot;&gt;4&lt;/font&gt;" style="ellipse;whiteSpace=wrap;html=1;aspect=fixed;" vertex="1" parent="1">
          <mxGeometry x="2310" y="430" width="60" height="60" as="geometry" />
        </mxCell>
        <mxCell id="4whmI7BuCEZ9BgeUe7PW-103" value="&lt;font style=&quot;font-size: 25px;&quot;&gt;5&lt;/font&gt;" style="ellipse;whiteSpace=wrap;html=1;aspect=fixed;" vertex="1" parent="1">
          <mxGeometry x="2680" y="430" width="60" height="60" as="geometry" />
        </mxCell>
        <mxCell id="4whmI7BuCEZ9BgeUe7PW-105" value="&lt;font style=&quot;font-size: 25px;&quot;&gt;6&lt;/font&gt;" style="ellipse;whiteSpace=wrap;html=1;aspect=fixed;" vertex="1" parent="1">
          <mxGeometry x="2300" y="980" width="60" height="60" as="geometry" />
        </mxCell>
        <mxCell id="4whmI7BuCEZ9BgeUe7PW-106" value="&lt;font style=&quot;font-size: 25px;&quot;&gt;7&lt;/font&gt;" style="ellipse;whiteSpace=wrap;html=1;aspect=fixed;" vertex="1" parent="1">
          <mxGeometry x="2670" y="980" width="60" height="60" as="geometry" />
        </mxCell>
        <mxCell id="4whmI7BuCEZ9BgeUe7PW-107" value="&lt;font style=&quot;font-size: 16px;&quot;&gt;Generic&lt;/font&gt;" style="text;html=1;align=center;verticalAlign=middle;whiteSpace=wrap;rounded=0;" vertex="1" parent="1">
          <mxGeometry x="2430" y="650" width="60" height="30" as="geometry" />
        </mxCell>
        <mxCell id="4whmI7BuCEZ9BgeUe7PW-108" value="&lt;font style=&quot;font-size: 16px;&quot;&gt;Form&lt;/font&gt;" style="text;html=1;align=center;verticalAlign=middle;whiteSpace=wrap;rounded=0;" vertex="1" parent="1">
          <mxGeometry x="2430" y="790" width="60" height="30" as="geometry" />
        </mxCell>
        <mxCell id="4whmI7BuCEZ9BgeUe7PW-109" value="Register for Approval&lt;div&gt;(request_Id)&lt;/div&gt;&lt;div&gt;/reg-apprvl&lt;/div&gt;" style="text;html=1;align=center;verticalAlign=middle;whiteSpace=wrap;rounded=0;" vertex="1" parent="1">
          <mxGeometry x="-2910" y="620" width="100" height="70" as="geometry" />
        </mxCell>
        <mxCell id="4whmI7BuCEZ9BgeUe7PW-110" value="Register for Task&lt;div&gt;(task_Id)&lt;/div&gt;&lt;div&gt;/reg-task&lt;/div&gt;" style="text;html=1;align=center;verticalAlign=middle;whiteSpace=wrap;rounded=0;" vertex="1" parent="1">
          <mxGeometry x="1880" y="740" width="100" height="70" as="geometry" />
        </mxCell>
        <mxCell id="4whmI7BuCEZ9BgeUe7PW-111" value="&lt;b&gt;&lt;font style=&quot;font-size: 19px;&quot;&gt;/reg-task&lt;/font&gt;&lt;/b&gt;&lt;div&gt;&lt;span style=&quot;font-size: 19px;&quot;&gt;&lt;b&gt;&lt;br&gt;&lt;/b&gt;&lt;/span&gt;&lt;div&gt;task_Id: ${}&lt;/div&gt;&lt;div&gt;assigned_to:&lt;span style=&quot;background-color: initial;&quot;&gt;${}&lt;/span&gt;&lt;br&gt;&lt;/div&gt;&lt;div&gt;assigned_on:&lt;span style=&quot;background-color: initial;&quot;&gt;${}&lt;/span&gt;&lt;span style=&quot;background-color: initial;&quot;&gt;&lt;br&gt;&lt;/span&gt;&lt;/div&gt;&lt;div&gt;type_Id:&amp;nbsp;&lt;span style=&quot;background-color: initial;&quot;&gt;${&lt;/span&gt;&lt;span style=&quot;background-color: initial;&quot;&gt;Generic/Form}&lt;/span&gt;&lt;span style=&quot;background-color: initial;&quot;&gt;&lt;br&gt;&lt;/span&gt;&lt;/div&gt;&lt;div&gt;task_details:&lt;/div&gt;&lt;div&gt;&lt;span style=&quot;white-space: pre;&quot;&gt;&#x9;&lt;/span&gt;{&lt;/div&gt;&lt;div style=&quot;&quot;&gt;&lt;span style=&quot;white-space: pre;&quot;&gt;&lt;span style=&quot;white-space: pre;&quot;&gt;&#x9;&lt;span style=&quot;white-space: pre;&quot;&gt;&#x9;&lt;/span&gt;&lt;/span&gt;&lt;/span&gt;&lt;span style=&quot;background-color: initial;&quot;&gt;application_Id: ${ISGS}&lt;/span&gt;&lt;/div&gt;&lt;div&gt;&lt;span style=&quot;white-space: pre;&quot;&gt;&#x9;&lt;/span&gt;&lt;span style=&quot;white-space: pre;&quot;&gt;&#x9;&lt;/span&gt;name:${}&lt;/div&gt;&lt;div&gt;&lt;span style=&quot;white-space: pre;&quot;&gt;&#x9;&lt;/span&gt;&lt;span style=&quot;white-space: pre;&quot;&gt;&#x9;&lt;/span&gt;start_time:&lt;span style=&quot;background-color: initial;&quot;&gt;${}&lt;/span&gt;&lt;/div&gt;&lt;div&gt;&lt;span style=&quot;background-color: initial;&quot;&gt;&lt;span style=&quot;white-space: pre;&quot;&gt;&#x9;&lt;/span&gt;&lt;span style=&quot;white-space: pre;&quot;&gt;&#x9;&lt;/span&gt;due_time: ${}&lt;/span&gt;&lt;/div&gt;&lt;div&gt;&lt;span style=&quot;white-space: pre;&quot;&gt;&#x9;&lt;/span&gt;&lt;span style=&quot;white-space: pre;&quot;&gt;&#x9;&lt;/span&gt;persona_Id:&lt;span style=&quot;background-color: initial;&quot;&gt;${}&lt;/span&gt;&lt;span style=&quot;background-color: initial; white-space: pre;&quot;&gt;&#x9;&lt;/span&gt;&lt;span style=&quot;background-color: initial; white-space: pre;&quot;&gt;&#x9;&lt;/span&gt;&lt;/div&gt;&lt;div&gt;&lt;span style=&quot;background-color: initial;&quot;&gt;&lt;span style=&quot;white-space: pre;&quot;&gt;&#x9;&lt;/span&gt;&lt;span style=&quot;white-space: pre;&quot;&gt;&#x9;&lt;/span&gt;priority: ${}&lt;/span&gt;&lt;/div&gt;&lt;div&gt;&lt;span style=&quot;background-color: initial;&quot;&gt;&lt;span style=&quot;white-space: pre;&quot;&gt;&#x9;&lt;/span&gt;&lt;span style=&quot;white-space: pre;&quot;&gt;&#x9;&lt;/span&gt;apprvl_status: ${pending}&lt;br&gt;&lt;/span&gt;&lt;/div&gt;&lt;div&gt;&lt;span style=&quot;white-space: pre;&quot;&gt;&#x9;&lt;/span&gt;}&lt;/div&gt;&lt;div&gt;&lt;br&gt;&lt;/div&gt;&lt;div&gt;&lt;br&gt;&lt;/div&gt;&lt;div&gt;&lt;br&gt;&lt;/div&gt;&lt;/div&gt;" style="text;html=1;align=left;verticalAlign=middle;whiteSpace=wrap;rounded=0;" vertex="1" parent="1">
          <mxGeometry x="1840" y="-307.5" width="230" height="295" as="geometry" />
        </mxCell>
        <mxCell id="4whmI7BuCEZ9BgeUe7PW-112" value="&lt;font style=&quot;font-size: 25px;&quot;&gt;1&lt;/font&gt;" style="ellipse;whiteSpace=wrap;html=1;aspect=fixed;" vertex="1" parent="1">
          <mxGeometry x="1770" y="-350" width="60" height="60" as="geometry" />
        </mxCell>
        <mxCell id="4whmI7BuCEZ9BgeUe7PW-113" value="&lt;b&gt;&lt;font style=&quot;font-size: 19px;&quot;&gt;/reg-task/generic&lt;/font&gt;&lt;/b&gt;&lt;div&gt;&lt;span style=&quot;font-size: 19px;&quot;&gt;&lt;b&gt;&lt;br&gt;&lt;/b&gt;&lt;/span&gt;&lt;div&gt;task_Id: ${}&lt;/div&gt;&lt;div&gt;assigned_to:&lt;span style=&quot;background-color: initial;&quot;&gt;${}&lt;/span&gt;&lt;br&gt;&lt;/div&gt;&lt;div&gt;assigned_on:&lt;span style=&quot;background-color: initial;&quot;&gt;${}&lt;/span&gt;&lt;span style=&quot;background-color: initial;&quot;&gt;&lt;br&gt;&lt;/span&gt;&lt;/div&gt;&lt;div&gt;type_Id:&amp;nbsp;&lt;span style=&quot;background-color: initial;&quot;&gt;${&lt;/span&gt;&lt;span style=&quot;background-color: initial;&quot;&gt;Generic}&lt;/span&gt;&lt;span style=&quot;background-color: initial;&quot;&gt;&lt;br&gt;&lt;/span&gt;&lt;/div&gt;&lt;div&gt;task_details:&lt;/div&gt;&lt;div&gt;&lt;span style=&quot;white-space: pre;&quot;&gt;&#x9;&lt;/span&gt;{&lt;/div&gt;&lt;div style=&quot;&quot;&gt;&lt;span style=&quot;white-space: pre;&quot;&gt;&lt;span style=&quot;white-space: pre;&quot;&gt;&#x9;&lt;span style=&quot;white-space: pre;&quot;&gt;&#x9;&lt;/span&gt;&lt;/span&gt;&lt;/span&gt;&lt;span style=&quot;background-color: initial;&quot;&gt;application_Id: ${ISGS}&lt;/span&gt;&lt;/div&gt;&lt;div&gt;&lt;span style=&quot;white-space: pre;&quot;&gt;&#x9;&lt;/span&gt;&lt;span style=&quot;white-space: pre;&quot;&gt;&#x9;&lt;/span&gt;name:${}&lt;/div&gt;&lt;div&gt;&lt;span style=&quot;white-space: pre;&quot;&gt;&#x9;&lt;/span&gt;&lt;span style=&quot;white-space: pre;&quot;&gt;&#x9;&lt;/span&gt;start_time:&lt;span style=&quot;background-color: initial;&quot;&gt;${}&lt;/span&gt;&lt;/div&gt;&lt;div&gt;&lt;span style=&quot;background-color: initial;&quot;&gt;&lt;span style=&quot;white-space: pre;&quot;&gt;&#x9;&lt;/span&gt;&lt;span style=&quot;white-space: pre;&quot;&gt;&#x9;&lt;/span&gt;&lt;/span&gt;&lt;span style=&quot;background-color: initial;&quot;&gt;form_Id:&amp;nbsp;&lt;/span&gt;&lt;/div&gt;&lt;div&gt;&lt;span style=&quot;background-color: initial;&quot;&gt;&lt;span style=&quot;white-space: pre;&quot;&gt;&#x9;&lt;/span&gt;&lt;span style=&quot;white-space: pre;&quot;&gt;&#x9;&lt;/span&gt;form_data: $&lt;br&gt;&lt;/span&gt;&lt;/div&gt;&lt;div&gt;&lt;span style=&quot;background-color: initial;&quot;&gt;&lt;span style=&quot;white-space: pre;&quot;&gt;&#x9;&lt;span style=&quot;white-space: pre;&quot;&gt;&#x9;&lt;/span&gt;&lt;span style=&quot;white-space: pre;&quot;&gt;&#x9;&lt;/span&gt;&lt;/span&gt;{&lt;/span&gt;&lt;/div&gt;&lt;div&gt;&lt;span style=&quot;background-color: initial;&quot;&gt;&lt;span style=&quot;white-space: pre;&quot;&gt;&#x9;&lt;/span&gt;&lt;span style=&quot;white-space: pre;&quot;&gt;&#x9;&lt;span style=&quot;white-space: pre;&quot;&gt;&#x9;&lt;/span&gt;&lt;span style=&quot;white-space: pre;&quot;&gt;&#x9;&lt;/span&gt;&lt;/span&gt;field1: ${},&lt;br&gt;&lt;/span&gt;&lt;/div&gt;&lt;div&gt;&lt;span style=&quot;background-color: initial;&quot;&gt;&lt;span style=&quot;white-space: pre;&quot;&gt;&#x9;&lt;/span&gt;&lt;span style=&quot;white-space: pre;&quot;&gt;&#x9;&lt;span style=&quot;white-space: pre;&quot;&gt;&#x9;&lt;/span&gt;&lt;span style=&quot;white-space: pre;&quot;&gt;&#x9;&lt;/span&gt;&lt;/span&gt;field2: ${},&lt;br&gt;&lt;/span&gt;&lt;/div&gt;&lt;div&gt;&lt;span style=&quot;background-color: initial;&quot;&gt;&lt;span style=&quot;white-space: pre;&quot;&gt;&#x9;&lt;span style=&quot;white-space: pre;&quot;&gt;&#x9;&lt;/span&gt;&lt;span style=&quot;white-space: pre;&quot;&gt;&#x9;&lt;/span&gt;&lt;/span&gt;}&lt;/span&gt;&lt;/div&gt;&lt;div&gt;&lt;span style=&quot;background-color: initial;&quot;&gt;&lt;span style=&quot;white-space: pre;&quot;&gt;&#x9;&lt;/span&gt;&lt;span style=&quot;white-space: pre;&quot;&gt;&#x9;&lt;/span&gt;due_time: ${}&lt;/span&gt;&lt;/div&gt;&lt;div&gt;&lt;span style=&quot;white-space: pre;&quot;&gt;&#x9;&lt;/span&gt;&lt;span style=&quot;white-space: pre;&quot;&gt;&#x9;&lt;/span&gt;persona_Id:&lt;span style=&quot;background-color: initial;&quot;&gt;${}&lt;/span&gt;&lt;span style=&quot;background-color: initial; white-space: pre;&quot;&gt;&#x9;&lt;/span&gt;&lt;span style=&quot;background-color: initial; white-space: pre;&quot;&gt;&#x9;&lt;/span&gt;&lt;/div&gt;&lt;div&gt;&lt;span style=&quot;background-color: initial;&quot;&gt;&lt;span style=&quot;white-space: pre;&quot;&gt;&#x9;&lt;/span&gt;&lt;span style=&quot;white-space: pre;&quot;&gt;&#x9;&lt;/span&gt;priority: ${}&lt;/span&gt;&lt;/div&gt;&lt;div&gt;&lt;span style=&quot;background-color: initial;&quot;&gt;&lt;span style=&quot;white-space: pre;&quot;&gt;&#x9;&lt;/span&gt;&lt;span style=&quot;white-space: pre;&quot;&gt;&#x9;&lt;/span&gt;apprvl_status: ${pending}&lt;br&gt;&lt;/span&gt;&lt;/div&gt;&lt;div&gt;&lt;span style=&quot;white-space: pre;&quot;&gt;&#x9;&lt;/span&gt;}&lt;/div&gt;&lt;div&gt;&lt;br&gt;&lt;/div&gt;&lt;div&gt;&lt;br&gt;&lt;/div&gt;&lt;div&gt;&lt;br&gt;&lt;/div&gt;&lt;/div&gt;" style="text;html=1;align=left;verticalAlign=middle;whiteSpace=wrap;rounded=0;" vertex="1" parent="1">
          <mxGeometry x="2120" y="-285" width="230" height="295" as="geometry" />
        </mxCell>
        <mxCell id="4whmI7BuCEZ9BgeUe7PW-114" value="&lt;b&gt;&lt;font style=&quot;font-size: 19px;&quot;&gt;/reg-task/form&lt;/font&gt;&lt;/b&gt;&lt;div&gt;&lt;span style=&quot;font-size: 19px;&quot;&gt;&lt;b&gt;&lt;br&gt;&lt;/b&gt;&lt;/span&gt;&lt;div&gt;task_Id: ${}&lt;/div&gt;&lt;div&gt;assigned_to:&lt;span style=&quot;background-color: initial;&quot;&gt;${}&lt;/span&gt;&lt;br&gt;&lt;/div&gt;&lt;div&gt;assigned_on:&lt;span style=&quot;background-color: initial;&quot;&gt;${}&lt;/span&gt;&lt;span style=&quot;background-color: initial;&quot;&gt;&lt;br&gt;&lt;/span&gt;&lt;/div&gt;&lt;div&gt;type_Id:&amp;nbsp;&lt;span style=&quot;background-color: initial;&quot;&gt;${&lt;/span&gt;&lt;span style=&quot;background-color: initial;&quot;&gt;Form}&lt;/span&gt;&lt;span style=&quot;background-color: initial;&quot;&gt;&lt;br&gt;&lt;/span&gt;&lt;/div&gt;&lt;div&gt;task_details:&lt;/div&gt;&lt;div&gt;&lt;span style=&quot;white-space: pre;&quot;&gt;&#x9;&lt;/span&gt;{&lt;/div&gt;&lt;div style=&quot;&quot;&gt;&lt;span style=&quot;white-space: pre;&quot;&gt;&lt;span style=&quot;white-space: pre;&quot;&gt;&#x9;&lt;span style=&quot;white-space: pre;&quot;&gt;&#x9;&lt;/span&gt;&lt;/span&gt;&lt;/span&gt;&lt;span style=&quot;background-color: initial;&quot;&gt;application_Id: ${ISGS}&lt;/span&gt;&lt;/div&gt;&lt;div&gt;&lt;span style=&quot;white-space: pre;&quot;&gt;&#x9;&lt;/span&gt;&lt;span style=&quot;white-space: pre;&quot;&gt;&#x9;&lt;/span&gt;name:${}&lt;/div&gt;&lt;div&gt;&lt;span style=&quot;white-space: pre;&quot;&gt;&#x9;&lt;/span&gt;&lt;span style=&quot;white-space: pre;&quot;&gt;&#x9;&lt;/span&gt;form_Id: ${}&lt;br&gt;&lt;/div&gt;&lt;div&gt;&lt;span style=&quot;white-space: pre;&quot;&gt;&#x9;&lt;/span&gt;&lt;span style=&quot;white-space: pre;&quot;&gt;&#x9;&lt;/span&gt;form_data: $&lt;/div&gt;&lt;div&gt;&lt;span style=&quot;white-space: pre;&quot;&gt;&#x9;&lt;/span&gt;&lt;span style=&quot;white-space: pre;&quot;&gt;&#x9;&lt;/span&gt;&lt;span style=&quot;white-space: pre;&quot;&gt;&#x9;&lt;/span&gt;{&lt;/div&gt;&lt;div&gt;&lt;span style=&quot;white-space: pre;&quot;&gt;&#x9;&lt;/span&gt;&lt;span style=&quot;white-space: pre;&quot;&gt;&#x9;&lt;/span&gt;&lt;span style=&quot;white-space: pre;&quot;&gt;&#x9;&lt;span style=&quot;white-space: pre;&quot;&gt;&#x9;&lt;/span&gt;&lt;/span&gt;&lt;span style=&quot;background-color: initial;&quot;&gt;field1: ${},&lt;/span&gt;&lt;/div&gt;&lt;div&gt;&lt;span style=&quot;white-space: pre;&quot;&gt;&#x9;&lt;/span&gt;&lt;span style=&quot;white-space: pre;&quot;&gt;&#x9;&lt;/span&gt;&lt;span style=&quot;white-space: pre;&quot;&gt;&#x9;&lt;/span&gt;&lt;span style=&quot;white-space: pre;&quot;&gt;&#x9;&lt;/span&gt;&lt;span style=&quot;background-color: initial;&quot;&gt;field2: ${},&lt;/span&gt;&lt;br&gt;&lt;/div&gt;&lt;div&gt;&lt;span style=&quot;background-color: initial;&quot;&gt;&lt;span style=&quot;white-space: pre;&quot;&gt;&#x9;&lt;/span&gt;&lt;span style=&quot;white-space: pre;&quot;&gt;&#x9;&lt;/span&gt;&lt;span style=&quot;white-space: pre;&quot;&gt;&#x9;&lt;/span&gt;&lt;span style=&quot;white-space: pre;&quot;&gt;&#x9;&lt;/span&gt;field3: ${},&lt;br&gt;&lt;/span&gt;&lt;/div&gt;&lt;div&gt;&lt;span style=&quot;background-color: initial;&quot;&gt;&lt;span style=&quot;white-space: pre;&quot;&gt;&#x9;&lt;/span&gt;&lt;span style=&quot;white-space: pre;&quot;&gt;&#x9;&lt;/span&gt;&lt;span style=&quot;white-space: pre;&quot;&gt;&#x9;&lt;/span&gt;&lt;span style=&quot;white-space: pre;&quot;&gt;&#x9;&lt;/span&gt;field4: ${}&lt;/span&gt;&lt;/div&gt;&lt;div&gt;&lt;span style=&quot;white-space: pre;&quot;&gt;&#x9;&lt;/span&gt;&lt;span style=&quot;white-space: pre;&quot;&gt;&#x9;&lt;/span&gt;&lt;span style=&quot;white-space: pre;&quot;&gt;&#x9;&lt;/span&gt;}&lt;/div&gt;&lt;div&gt;&lt;span style=&quot;white-space: pre;&quot;&gt;&#x9;&lt;/span&gt;&lt;span style=&quot;white-space: pre;&quot;&gt;&#x9;&lt;/span&gt;start_time:&lt;span style=&quot;background-color: initial;&quot;&gt;${}&lt;/span&gt;&lt;/div&gt;&lt;div&gt;&lt;span style=&quot;background-color: initial;&quot;&gt;&lt;span style=&quot;white-space: pre;&quot;&gt;&#x9;&lt;/span&gt;&lt;span style=&quot;white-space: pre;&quot;&gt;&#x9;&lt;/span&gt;due_time: ${}&lt;/span&gt;&lt;/div&gt;&lt;div&gt;&lt;span style=&quot;white-space: pre;&quot;&gt;&#x9;&lt;/span&gt;&lt;span style=&quot;white-space: pre;&quot;&gt;&#x9;&lt;/span&gt;persona_Id:&lt;span style=&quot;background-color: initial;&quot;&gt;${}&lt;/span&gt;&lt;span style=&quot;background-color: initial; white-space: pre;&quot;&gt;&#x9;&lt;/span&gt;&lt;span style=&quot;background-color: initial; white-space: pre;&quot;&gt;&#x9;&lt;/span&gt;&lt;/div&gt;&lt;div&gt;&lt;span style=&quot;background-color: initial;&quot;&gt;&lt;span style=&quot;white-space: pre;&quot;&gt;&#x9;&lt;/span&gt;&lt;span style=&quot;white-space: pre;&quot;&gt;&#x9;&lt;/span&gt;priority: ${}&lt;/span&gt;&lt;/div&gt;&lt;div&gt;&lt;span style=&quot;background-color: initial;&quot;&gt;&lt;span style=&quot;white-space: pre;&quot;&gt;&#x9;&lt;/span&gt;&lt;span style=&quot;white-space: pre;&quot;&gt;&#x9;&lt;/span&gt;apprvl_status: ${pending}&lt;br&gt;&lt;/span&gt;&lt;/div&gt;&lt;div&gt;&lt;span style=&quot;white-space: pre;&quot;&gt;&#x9;&lt;/span&gt;}&lt;/div&gt;&lt;div&gt;&lt;br&gt;&lt;/div&gt;&lt;div&gt;&lt;br&gt;&lt;/div&gt;&lt;div&gt;&lt;br&gt;&lt;/div&gt;&lt;/div&gt;" style="text;html=1;align=left;verticalAlign=middle;whiteSpace=wrap;rounded=0;" vertex="1" parent="1">
          <mxGeometry x="2410" y="-275" width="230" height="295" as="geometry" />
        </mxCell>
        <mxCell id="4whmI7BuCEZ9BgeUe7PW-115" value="&lt;font style=&quot;font-size: 25px;&quot;&gt;2&lt;/font&gt;" style="ellipse;whiteSpace=wrap;html=1;aspect=fixed;" vertex="1" parent="1">
          <mxGeometry x="2050" y="-355" width="60" height="60" as="geometry" />
        </mxCell>
        <mxCell id="4whmI7BuCEZ9BgeUe7PW-116" value="&lt;font style=&quot;font-size: 25px;&quot;&gt;3&lt;/font&gt;" style="ellipse;whiteSpace=wrap;html=1;aspect=fixed;" vertex="1" parent="1">
          <mxGeometry x="2340" y="-350" width="60" height="60" as="geometry" />
        </mxCell>
        <mxCell id="4whmI7BuCEZ9BgeUe7PW-117" value="&lt;font style=&quot;font-size: 25px;&quot;&gt;4&lt;/font&gt;" style="ellipse;whiteSpace=wrap;html=1;aspect=fixed;" vertex="1" parent="1">
          <mxGeometry x="2690" y="-350" width="60" height="60" as="geometry" />
        </mxCell>
        <mxCell id="4whmI7BuCEZ9BgeUe7PW-118" value="&lt;font style=&quot;font-size: 25px;&quot;&gt;5&lt;/font&gt;&lt;span style=&quot;color: rgba(0, 0, 0, 0); font-family: monospace; font-size: 0px; text-align: start; text-wrap: nowrap;&quot;&gt;%3CmxGraphModel%3E%3Croot%3E%3CmxCell%20id%3D%220%22%2F%3E%3CmxCell%20id%3D%221%22%20parent%3D%220%22%2F%3E%3CmxCell%20id%3D%222%22%20value%3D%22%26lt%3Bfont%20style%3D%26quot%3Bfont-size%3A%2025px%3B%26quot%3B%26gt%3B1%26lt%3B%2Ffont%26gt%3B%22%20style%3D%22ellipse%3BwhiteSpace%3Dwrap%3Bhtml%3D1%3Baspect%3Dfixed%3B%22%20vertex%3D%221%22%20parent%3D%221%22%3E%3CmxGeometry%20x%3D%221770%22%20y%3D%22-350%22%20width%3D%2260%22%20height%3D%2260%22%20as%3D%22geometry%22%2F%3E%3C%2FmxCell%3E%3C%2Froot%3E%3C%2FmxGraphModel%3E&lt;/span&gt;" style="ellipse;whiteSpace=wrap;html=1;aspect=fixed;" vertex="1" parent="1">
          <mxGeometry x="3040" y="-350" width="60" height="60" as="geometry" />
        </mxCell>
        <mxCell id="4whmI7BuCEZ9BgeUe7PW-119" value="&lt;span style=&quot;font-size: 25px;&quot;&gt;6&lt;/span&gt;" style="ellipse;whiteSpace=wrap;html=1;aspect=fixed;" vertex="1" parent="1">
          <mxGeometry x="3230" y="70" width="60" height="60" as="geometry" />
        </mxCell>
        <mxCell id="4whmI7BuCEZ9BgeUe7PW-120" value="&lt;span style=&quot;font-size: 25px;&quot;&gt;7&lt;/span&gt;" style="ellipse;whiteSpace=wrap;html=1;aspect=fixed;" vertex="1" parent="1">
          <mxGeometry x="3680" y="70" width="60" height="60" as="geometry" />
        </mxCell>
        <mxCell id="4whmI7BuCEZ9BgeUe7PW-121" value="&lt;b&gt;&lt;font style=&quot;font-size: 19px;&quot;&gt;task/generic/status&lt;/font&gt;&lt;/b&gt;&lt;div&gt;&lt;br&gt;&lt;/div&gt;&lt;div&gt;&lt;div&gt;task_Id: ${}&lt;/div&gt;&lt;div&gt;assigned_to:&lt;span style=&quot;background-color: initial;&quot;&gt;${}&lt;/span&gt;&lt;br&gt;&lt;/div&gt;&lt;div&gt;assigned_on:&lt;span style=&quot;background-color: initial;&quot;&gt;${}&lt;/span&gt;&lt;span style=&quot;background-color: initial;&quot;&gt;&lt;br&gt;&lt;/span&gt;&lt;/div&gt;&lt;div&gt;type_Id:&amp;nbsp;&lt;span style=&quot;background-color: initial;&quot;&gt;${&lt;/span&gt;&lt;span style=&quot;background-color: initial;&quot;&gt;Generic}&lt;/span&gt;&lt;span style=&quot;background-color: initial;&quot;&gt;&lt;br&gt;&lt;/span&gt;&lt;/div&gt;&lt;div&gt;task_details:&lt;/div&gt;&lt;/div&gt;&lt;div&gt;&lt;span style=&quot;white-space: pre;&quot;&gt;&#x9;&lt;/span&gt;{&lt;/div&gt;&lt;div&gt;&lt;span style=&quot;white-space: pre;&quot;&gt;&#x9;&lt;/span&gt;&lt;span style=&quot;white-space: pre;&quot;&gt;&#x9;&lt;/span&gt;&lt;span style=&quot;background-color: initial;&quot;&gt;application_Id: ${ISGS}&lt;/span&gt;&lt;br&gt;&lt;/div&gt;&lt;div&gt;&lt;span style=&quot;white-space: pre;&quot;&gt;&#x9;&lt;/span&gt;&lt;span style=&quot;white-space: pre;&quot;&gt;&#x9;&lt;/span&gt;name:${}&lt;/div&gt;&lt;div&gt;&lt;span style=&quot;white-space: pre;&quot;&gt;&#x9;&lt;/span&gt;&lt;span style=&quot;white-space: pre;&quot;&gt;&#x9;&lt;/span&gt;start_time:&lt;span style=&quot;background-color: initial;&quot;&gt;${}&lt;/span&gt;&lt;/div&gt;&lt;div&gt;&lt;span style=&quot;background-color: initial;&quot;&gt;&lt;span style=&quot;white-space: pre;&quot;&gt;&#x9;&lt;/span&gt;&lt;span style=&quot;white-space: pre;&quot;&gt;&#x9;&lt;/span&gt;&lt;/span&gt;&lt;span style=&quot;background-color: initial;&quot;&gt;form_Id:&amp;nbsp;&lt;/span&gt;&lt;/div&gt;&lt;div&gt;&lt;span style=&quot;background-color: initial;&quot;&gt;&lt;span style=&quot;white-space: pre;&quot;&gt;&#x9;&lt;/span&gt;&lt;span style=&quot;white-space: pre;&quot;&gt;&#x9;&lt;/span&gt;form_data: $&lt;br&gt;&lt;/span&gt;&lt;/div&gt;&lt;div&gt;&lt;span style=&quot;background-color: initial;&quot;&gt;&lt;span style=&quot;white-space: pre;&quot;&gt;&#x9;&lt;span style=&quot;white-space: pre;&quot;&gt;&#x9;&lt;/span&gt;&lt;span style=&quot;white-space: pre;&quot;&gt;&#x9;&lt;/span&gt;&lt;/span&gt;{&lt;/span&gt;&lt;/div&gt;&lt;div&gt;&lt;span style=&quot;background-color: initial;&quot;&gt;&lt;span style=&quot;white-space: pre;&quot;&gt;&#x9;&lt;/span&gt;&lt;span style=&quot;white-space: pre;&quot;&gt;&#x9;&lt;span style=&quot;white-space: pre;&quot;&gt;&#x9;&lt;/span&gt;&lt;span style=&quot;white-space: pre;&quot;&gt;&#x9;&lt;/span&gt;&lt;/span&gt;field1: ${},&lt;br&gt;&lt;/span&gt;&lt;/div&gt;&lt;div&gt;&lt;span style=&quot;background-color: initial;&quot;&gt;&lt;span style=&quot;white-space: pre;&quot;&gt;&#x9;&lt;/span&gt;&lt;span style=&quot;white-space: pre;&quot;&gt;&#x9;&lt;span style=&quot;white-space: pre;&quot;&gt;&#x9;&lt;/span&gt;&lt;span style=&quot;white-space: pre;&quot;&gt;&#x9;&lt;/span&gt;&lt;/span&gt;field2: ${},&lt;br&gt;&lt;/span&gt;&lt;/div&gt;&lt;div&gt;&lt;span style=&quot;background-color: initial;&quot;&gt;&lt;span style=&quot;white-space: pre;&quot;&gt;&#x9;&lt;span style=&quot;white-space: pre;&quot;&gt;&#x9;&lt;/span&gt;&lt;span style=&quot;white-space: pre;&quot;&gt;&#x9;&lt;/span&gt;&lt;/span&gt;}&lt;/span&gt;&lt;/div&gt;&lt;div&gt;&lt;span style=&quot;background-color: initial;&quot;&gt;&lt;span style=&quot;white-space: pre;&quot;&gt;&#x9;&lt;/span&gt;&lt;span style=&quot;white-space: pre;&quot;&gt;&#x9;&lt;/span&gt;modified_time: ${}&lt;/span&gt;&lt;/div&gt;&lt;div&gt;&lt;span style=&quot;white-space: pre;&quot;&gt;&#x9;&lt;/span&gt;&lt;span style=&quot;white-space: pre;&quot;&gt;&#x9;&lt;/span&gt;persona_Id:&lt;span style=&quot;background-color: initial;&quot;&gt;${}&lt;/span&gt;&lt;span style=&quot;background-color: initial; white-space: pre;&quot;&gt;&#x9;&lt;/span&gt;&lt;span style=&quot;background-color: initial; white-space: pre;&quot;&gt;&#x9;&lt;/span&gt;&lt;/div&gt;&lt;div&gt;&lt;span style=&quot;background-color: initial;&quot;&gt;&lt;span style=&quot;white-space: pre;&quot;&gt;&#x9;&lt;/span&gt;&lt;span style=&quot;white-space: pre;&quot;&gt;&#x9;&lt;/span&gt;priority: ${}&lt;/span&gt;&lt;/div&gt;&lt;div style=&quot;&quot;&gt;&lt;span style=&quot;white-space: pre;&quot;&gt;&lt;span style=&quot;white-space: pre;&quot;&gt;&#x9;&lt;span style=&quot;white-space: pre;&quot;&gt;&#x9;&lt;/span&gt;t&lt;/span&gt;ask_status: &lt;/span&gt;&lt;span style=&quot;background-color: initial;&quot;&gt;${&lt;/span&gt;&lt;span style=&quot;white-space: pre; background-color: initial;&quot;&gt;Time Elapsed}&lt;/span&gt;&lt;/div&gt;&lt;div style=&quot;&quot;&gt;&lt;span style=&quot;white-space: pre;&quot;&gt;&lt;span style=&quot;white-space: pre;&quot;&gt;&#x9;&lt;/span&gt;&lt;span style=&quot;white-space: pre;&quot;&gt;&#x9;&lt;/span&gt;comment:&lt;/span&gt;&lt;span style=&quot;background-color: initial;&quot;&gt;${}&lt;/span&gt;&lt;/div&gt;&lt;div&gt;&lt;span style=&quot;white-space: pre;&quot;&gt;&#x9;&lt;/span&gt;}&lt;/div&gt;&lt;div&gt;&lt;br&gt;&lt;/div&gt;" style="text;html=1;align=left;verticalAlign=middle;whiteSpace=wrap;rounded=0;" vertex="1" parent="1">
          <mxGeometry x="2770" y="-297.5" width="230" height="305" as="geometry" />
        </mxCell>
        <mxCell id="4whmI7BuCEZ9BgeUe7PW-122" value="&lt;b&gt;&lt;font style=&quot;font-size: 19px;&quot;&gt;task/generic/status&lt;/font&gt;&lt;/b&gt;&lt;div&gt;&lt;br&gt;&lt;/div&gt;&lt;div&gt;&lt;div&gt;task_Id: ${}&lt;/div&gt;&lt;div&gt;assigned_to:&lt;span style=&quot;background-color: initial;&quot;&gt;${}&lt;/span&gt;&lt;br&gt;&lt;/div&gt;&lt;div&gt;assigned_on:&lt;span style=&quot;background-color: initial;&quot;&gt;${}&lt;/span&gt;&lt;span style=&quot;background-color: initial;&quot;&gt;&lt;br&gt;&lt;/span&gt;&lt;/div&gt;&lt;div&gt;type_Id:&amp;nbsp;&lt;span style=&quot;background-color: initial;&quot;&gt;${&lt;/span&gt;&lt;span style=&quot;background-color: initial;&quot;&gt;Generic}&lt;/span&gt;&lt;span style=&quot;background-color: initial;&quot;&gt;&lt;br&gt;&lt;/span&gt;&lt;/div&gt;&lt;div&gt;task_details:&lt;/div&gt;&lt;/div&gt;&lt;div&gt;&lt;span style=&quot;white-space: pre;&quot;&gt;&#x9;&lt;/span&gt;{&lt;/div&gt;&lt;div style=&quot;&quot;&gt;&lt;span style=&quot;white-space: pre;&quot;&gt;&lt;span style=&quot;white-space: pre;&quot;&gt;&#x9;&lt;span style=&quot;white-space: pre;&quot;&gt;&#x9;&lt;/span&gt;&lt;/span&gt;&lt;/span&gt;&lt;span style=&quot;background-color: initial;&quot;&gt;application_Id: ${ISGS}&lt;/span&gt;&lt;/div&gt;&lt;div&gt;&lt;span style=&quot;white-space: pre;&quot;&gt;&#x9;&lt;/span&gt;&lt;span style=&quot;white-space: pre;&quot;&gt;&#x9;&lt;/span&gt;name:${}&lt;/div&gt;&lt;div&gt;&lt;span style=&quot;white-space: pre;&quot;&gt;&#x9;&lt;/span&gt;&lt;span style=&quot;white-space: pre;&quot;&gt;&#x9;&lt;/span&gt;start_time:&lt;span style=&quot;background-color: initial;&quot;&gt;${}&lt;/span&gt;&lt;/div&gt;&lt;div&gt;&lt;span style=&quot;background-color: initial;&quot;&gt;&lt;span style=&quot;white-space: pre;&quot;&gt;&#x9;&lt;/span&gt;&lt;span style=&quot;white-space: pre;&quot;&gt;&#x9;&lt;/span&gt;&lt;/span&gt;&lt;span style=&quot;background-color: initial;&quot;&gt;form_Id:&amp;nbsp;&lt;/span&gt;&lt;/div&gt;&lt;div&gt;&lt;span style=&quot;background-color: initial;&quot;&gt;&lt;span style=&quot;white-space: pre;&quot;&gt;&#x9;&lt;/span&gt;&lt;span style=&quot;white-space: pre;&quot;&gt;&#x9;&lt;/span&gt;form_data: $&lt;br&gt;&lt;/span&gt;&lt;/div&gt;&lt;div&gt;&lt;span style=&quot;background-color: initial;&quot;&gt;&lt;span style=&quot;white-space: pre;&quot;&gt;&#x9;&lt;span style=&quot;white-space: pre;&quot;&gt;&#x9;&lt;/span&gt;&lt;span style=&quot;white-space: pre;&quot;&gt;&#x9;&lt;/span&gt;&lt;/span&gt;{&lt;/span&gt;&lt;/div&gt;&lt;div&gt;&lt;span style=&quot;background-color: initial;&quot;&gt;&lt;span style=&quot;white-space: pre;&quot;&gt;&#x9;&lt;/span&gt;&lt;span style=&quot;white-space: pre;&quot;&gt;&#x9;&lt;span style=&quot;white-space: pre;&quot;&gt;&#x9;&lt;/span&gt;&lt;span style=&quot;white-space: pre;&quot;&gt;&#x9;&lt;/span&gt;&lt;/span&gt;field1: ${},&lt;br&gt;&lt;/span&gt;&lt;/div&gt;&lt;div&gt;&lt;span style=&quot;background-color: initial;&quot;&gt;&lt;span style=&quot;white-space: pre;&quot;&gt;&#x9;&lt;/span&gt;&lt;span style=&quot;white-space: pre;&quot;&gt;&#x9;&lt;span style=&quot;white-space: pre;&quot;&gt;&#x9;&lt;/span&gt;&lt;span style=&quot;white-space: pre;&quot;&gt;&#x9;&lt;/span&gt;&lt;/span&gt;field2: ${},&lt;br&gt;&lt;/span&gt;&lt;/div&gt;&lt;div&gt;&lt;span style=&quot;background-color: initial;&quot;&gt;&lt;span style=&quot;white-space: pre;&quot;&gt;&#x9;&lt;span style=&quot;white-space: pre;&quot;&gt;&#x9;&lt;/span&gt;&lt;span style=&quot;white-space: pre;&quot;&gt;&#x9;&lt;/span&gt;&lt;/span&gt;}&lt;/span&gt;&lt;/div&gt;&lt;div&gt;&lt;span style=&quot;background-color: initial;&quot;&gt;&lt;span style=&quot;white-space: pre;&quot;&gt;&#x9;&lt;/span&gt;&lt;span style=&quot;white-space: pre;&quot;&gt;&#x9;&lt;/span&gt;modified_time: ${}&lt;/span&gt;&lt;/div&gt;&lt;div&gt;&lt;span style=&quot;white-space: pre;&quot;&gt;&#x9;&lt;/span&gt;&lt;span style=&quot;white-space: pre;&quot;&gt;&#x9;&lt;/span&gt;persona_Id:&lt;span style=&quot;background-color: initial;&quot;&gt;${}&lt;/span&gt;&lt;span style=&quot;background-color: initial; white-space: pre;&quot;&gt;&#x9;&lt;/span&gt;&lt;span style=&quot;background-color: initial; white-space: pre;&quot;&gt;&#x9;&lt;/span&gt;&lt;/div&gt;&lt;div&gt;&lt;span style=&quot;background-color: initial;&quot;&gt;&lt;span style=&quot;white-space: pre;&quot;&gt;&#x9;&lt;/span&gt;&lt;span style=&quot;white-space: pre;&quot;&gt;&#x9;&lt;/span&gt;priority: ${}&lt;/span&gt;&lt;/div&gt;&lt;div&gt;&lt;span style=&quot;white-space: pre;&quot;&gt;&#x9;&lt;span style=&quot;white-space: pre;&quot;&gt;&#x9;&lt;/span&gt;task_status: &lt;/span&gt;&lt;span style=&quot;background-color: initial;&quot;&gt;${Approved&lt;/span&gt;&lt;span style=&quot;white-space: pre; background-color: initial;&quot;&gt;}&lt;/span&gt;&lt;/div&gt;&lt;div style=&quot;&quot;&gt;&lt;span style=&quot;background-color: initial; white-space: pre;&quot;&gt;&#x9;&lt;span style=&quot;white-space: pre;&quot;&gt;&#x9;&lt;/span&gt;comment:&lt;/span&gt;&lt;span style=&quot;background-color: initial;&quot;&gt;${}&lt;/span&gt;&lt;/div&gt;&lt;div&gt;&lt;span style=&quot;white-space: pre;&quot;&gt;&#x9;&lt;/span&gt;}&lt;/div&gt;&lt;div&gt;&lt;br&gt;&lt;/div&gt;" style="text;html=1;align=left;verticalAlign=middle;whiteSpace=wrap;rounded=0;" vertex="1" parent="1">
          <mxGeometry x="3120" y="-305" width="230" height="305" as="geometry" />
        </mxCell>
        <mxCell id="4whmI7BuCEZ9BgeUe7PW-123" value="&lt;b&gt;&lt;font style=&quot;font-size: 19px;&quot;&gt;task/form/status&lt;/font&gt;&lt;/b&gt;&lt;div&gt;&lt;br&gt;&lt;/div&gt;&lt;div&gt;&lt;div&gt;task_Id: ${}&lt;/div&gt;&lt;div&gt;assigned_to:&lt;span style=&quot;background-color: initial;&quot;&gt;${}&lt;/span&gt;&lt;br&gt;&lt;/div&gt;&lt;div&gt;assigned_on:&lt;span style=&quot;background-color: initial;&quot;&gt;${}&lt;/span&gt;&lt;span style=&quot;background-color: initial;&quot;&gt;&lt;br&gt;&lt;/span&gt;&lt;/div&gt;&lt;div&gt;type_Id:&amp;nbsp;&lt;span style=&quot;background-color: initial;&quot;&gt;${form&lt;/span&gt;&lt;span style=&quot;background-color: initial;&quot;&gt;}&lt;/span&gt;&lt;span style=&quot;background-color: initial;&quot;&gt;&lt;br&gt;&lt;/span&gt;&lt;/div&gt;&lt;div&gt;task_details:&lt;/div&gt;&lt;/div&gt;&lt;div&gt;&lt;span style=&quot;white-space: pre;&quot;&gt;&#x9;&lt;/span&gt;{&lt;/div&gt;&lt;div style=&quot;&quot;&gt;&lt;span style=&quot;white-space: pre;&quot;&gt;&lt;span style=&quot;white-space: pre;&quot;&gt;&#x9;&lt;span style=&quot;white-space: pre;&quot;&gt;&#x9;&lt;/span&gt;&lt;/span&gt;&lt;/span&gt;&lt;span style=&quot;background-color: initial;&quot;&gt;application_Id: ${ISGS}&lt;/span&gt;&lt;/div&gt;&lt;div&gt;&lt;span style=&quot;white-space: pre;&quot;&gt;&#x9;&lt;/span&gt;&lt;span style=&quot;white-space: pre;&quot;&gt;&#x9;&lt;/span&gt;name:${}&lt;/div&gt;&lt;div&gt;&lt;span style=&quot;white-space: pre;&quot;&gt;&#x9;&lt;/span&gt;&lt;span style=&quot;white-space: pre;&quot;&gt;&#x9;&lt;/span&gt;f&lt;span style=&quot;background-color: initial;&quot;&gt;orm_Id: ${}&lt;/span&gt;&lt;br&gt;&lt;/div&gt;&lt;div&gt;&lt;div&gt;&lt;span style=&quot;white-space: pre;&quot;&gt;&lt;span style=&quot;white-space: pre;&quot;&gt;&#x9;&lt;/span&gt;&lt;span style=&quot;white-space: pre;&quot;&gt;&#x9;&lt;/span&gt;form_d&lt;/span&gt;ata:$&lt;span style=&quot;white-space: pre;&quot;&gt;&#x9;&lt;/span&gt;&lt;span style=&quot;white-space: pre;&quot;&gt;&#x9;&lt;/span&gt;&lt;/div&gt;&lt;div&gt;&lt;span style=&quot;white-space: pre;&quot;&gt;&#x9;&lt;/span&gt;&lt;span style=&quot;white-space: pre;&quot;&gt;&#x9;&lt;span style=&quot;white-space: pre;&quot;&gt;&#x9;&lt;/span&gt;&lt;/span&gt;{&lt;span style=&quot;white-space: pre;&quot;&gt;&#x9;&lt;/span&gt;&lt;/div&gt;&lt;div&gt;&lt;span style=&quot;white-space: pre;&quot;&gt;&#x9;&lt;/span&gt;&lt;span style=&quot;white-space: pre;&quot;&gt;&#x9;&lt;/span&gt;&lt;span style=&quot;white-space: pre;&quot;&gt;&#x9;&lt;span style=&quot;white-space: pre;&quot;&gt;&#x9;&lt;/span&gt;&lt;/span&gt;field1: ${},&lt;br&gt;&lt;/div&gt;&lt;div&gt;&lt;span style=&quot;white-space: pre;&quot;&gt;&#x9;&lt;/span&gt;&lt;span style=&quot;white-space: pre;&quot;&gt;&#x9;&lt;/span&gt;&lt;span style=&quot;white-space: pre;&quot;&gt;&#x9;&lt;span style=&quot;white-space: pre;&quot;&gt;&#x9;&lt;/span&gt;&lt;/span&gt;&lt;span style=&quot;background-color: initial;&quot;&gt;field2: ${},&lt;/span&gt;&lt;/div&gt;&lt;div&gt;&lt;span style=&quot;background-color: initial; white-space: pre;&quot;&gt;&#x9;&lt;/span&gt;&lt;span style=&quot;background-color: initial; white-space: pre;&quot;&gt;&#x9;&lt;/span&gt;&lt;span style=&quot;background-color: initial; white-space: pre;&quot;&gt;&#x9;&lt;span style=&quot;white-space: pre;&quot;&gt;&#x9;&lt;/span&gt;&lt;/span&gt;&lt;span style=&quot;background-color: initial;&quot;&gt;field3: ${},&lt;/span&gt;&lt;/div&gt;&lt;div&gt;&lt;span style=&quot;background-color: initial;&quot;&gt;&lt;span style=&quot;white-space: pre;&quot;&gt;&#x9;&lt;/span&gt;&lt;span style=&quot;white-space: pre;&quot;&gt;&#x9;&lt;/span&gt;&lt;span style=&quot;white-space: pre;&quot;&gt;&#x9;&lt;span style=&quot;white-space: pre;&quot;&gt;&#x9;&lt;/span&gt;&lt;/span&gt;field4: ${}&lt;br&gt;&lt;/span&gt;&lt;/div&gt;&lt;div&gt;&lt;span style=&quot;background-color: initial;&quot;&gt;&lt;span style=&quot;white-space: pre;&quot;&gt;&lt;span style=&quot;white-space: pre;&quot;&gt;&#x9;&lt;/span&gt;&lt;span style=&quot;white-space: pre;&quot;&gt;&#x9;&lt;/span&gt;&lt;/span&gt;&lt;/span&gt;&lt;span style=&quot;background-color: initial; white-space: pre;&quot;&gt;&#x9;&lt;/span&gt;&lt;span style=&quot;background-color: initial;&quot;&gt;}&lt;/span&gt;&lt;/div&gt;&lt;/div&gt;&lt;div&gt;&lt;span style=&quot;white-space: pre;&quot;&gt;&#x9;&lt;/span&gt;&lt;span style=&quot;white-space: pre;&quot;&gt;&#x9;&lt;/span&gt;start_time:&lt;span style=&quot;background-color: initial;&quot;&gt;${}&lt;/span&gt;&lt;/div&gt;&lt;div&gt;&lt;span style=&quot;background-color: initial;&quot;&gt;&lt;span style=&quot;white-space: pre;&quot;&gt;&#x9;&lt;/span&gt;&lt;span style=&quot;white-space: pre;&quot;&gt;&#x9;&lt;/span&gt;modified_time: ${}&lt;/span&gt;&lt;/div&gt;&lt;div&gt;&lt;span style=&quot;white-space: pre;&quot;&gt;&#x9;&lt;/span&gt;&lt;span style=&quot;white-space: pre;&quot;&gt;&#x9;&lt;/span&gt;persona_Id:&lt;span style=&quot;background-color: initial;&quot;&gt;${}&lt;/span&gt;&lt;span style=&quot;background-color: initial; white-space: pre;&quot;&gt;&#x9;&lt;/span&gt;&lt;span style=&quot;background-color: initial; white-space: pre;&quot;&gt;&#x9;&lt;/span&gt;&lt;/div&gt;&lt;div&gt;&lt;span style=&quot;background-color: initial;&quot;&gt;&lt;span style=&quot;white-space: pre;&quot;&gt;&#x9;&lt;/span&gt;&lt;span style=&quot;white-space: pre;&quot;&gt;&#x9;&lt;/span&gt;priority: ${}&lt;/span&gt;&lt;/div&gt;&lt;div&gt;&lt;span style=&quot;white-space: pre;&quot;&gt;&#x9;&lt;span style=&quot;white-space: pre;&quot;&gt;&#x9;&lt;/span&gt;task_status: &lt;/span&gt;&lt;span style=&quot;background-color: initial;&quot;&gt;${Time Elapsed&lt;/span&gt;&lt;span style=&quot;white-space: pre; background-color: initial;&quot;&gt;}&lt;/span&gt;&lt;/div&gt;&lt;div style=&quot;&quot;&gt;&lt;span style=&quot;background-color: initial; white-space: pre;&quot;&gt;&#x9;&lt;span style=&quot;white-space: pre;&quot;&gt;&#x9;&lt;/span&gt;comment:&lt;/span&gt;&lt;span style=&quot;background-color: initial;&quot;&gt;${}&lt;/span&gt;&lt;/div&gt;&lt;div&gt;&lt;span style=&quot;white-space: pre;&quot;&gt;&#x9;&lt;/span&gt;}&lt;/div&gt;&lt;div&gt;&lt;br&gt;&lt;/div&gt;" style="text;html=1;align=left;verticalAlign=middle;whiteSpace=wrap;rounded=0;" vertex="1" parent="1">
          <mxGeometry x="3350" y="130" width="230" height="305" as="geometry" />
        </mxCell>
        <mxCell id="4whmI7BuCEZ9BgeUe7PW-125" value="&lt;b&gt;&lt;font style=&quot;font-size: 19px;&quot;&gt;task/form/status&lt;/font&gt;&lt;/b&gt;&lt;div&gt;&lt;br&gt;&lt;/div&gt;&lt;div&gt;&lt;div&gt;task_Id: ${}&lt;/div&gt;&lt;div&gt;assigned_to:&lt;span style=&quot;background-color: initial;&quot;&gt;${}&lt;/span&gt;&lt;br&gt;&lt;/div&gt;&lt;div&gt;assigned_on:&lt;span style=&quot;background-color: initial;&quot;&gt;${}&lt;/span&gt;&lt;span style=&quot;background-color: initial;&quot;&gt;&lt;br&gt;&lt;/span&gt;&lt;/div&gt;&lt;div&gt;type_Id:&amp;nbsp;&lt;span style=&quot;background-color: initial;&quot;&gt;${form&lt;/span&gt;&lt;span style=&quot;background-color: initial;&quot;&gt;}&lt;/span&gt;&lt;span style=&quot;background-color: initial;&quot;&gt;&lt;br&gt;&lt;/span&gt;&lt;/div&gt;&lt;div&gt;task_details:&lt;/div&gt;&lt;/div&gt;&lt;div&gt;&lt;span style=&quot;white-space: pre;&quot;&gt;&#x9;&lt;/span&gt;{&lt;/div&gt;&lt;div style=&quot;&quot;&gt;&lt;span style=&quot;white-space: pre;&quot;&gt;&lt;span style=&quot;white-space: pre;&quot;&gt;&#x9;&lt;span style=&quot;white-space: pre;&quot;&gt;&#x9;&lt;/span&gt;&lt;/span&gt;&lt;/span&gt;&lt;span style=&quot;background-color: initial;&quot;&gt;application_Id: ${ISGS}&lt;/span&gt;&lt;/div&gt;&lt;div&gt;&lt;span style=&quot;white-space: pre;&quot;&gt;&#x9;&lt;/span&gt;&lt;span style=&quot;white-space: pre;&quot;&gt;&#x9;&lt;/span&gt;name:${}&lt;/div&gt;&lt;div&gt;&lt;span style=&quot;white-space: pre;&quot;&gt;&#x9;&lt;/span&gt;&lt;span style=&quot;white-space: pre;&quot;&gt;&#x9;&lt;/span&gt;f&lt;span style=&quot;background-color: initial;&quot;&gt;orm_Id: ${}&lt;/span&gt;&lt;br&gt;&lt;/div&gt;&lt;div&gt;&lt;div&gt;&lt;span style=&quot;white-space: pre;&quot;&gt;&lt;span style=&quot;white-space: pre;&quot;&gt;&#x9;&lt;/span&gt;&lt;span style=&quot;white-space: pre;&quot;&gt;&#x9;&lt;/span&gt;form_d&lt;/span&gt;ata:$&lt;span style=&quot;white-space: pre;&quot;&gt;&#x9;&lt;/span&gt;&lt;span style=&quot;white-space: pre;&quot;&gt;&#x9;&lt;/span&gt;&lt;/div&gt;&lt;div&gt;&lt;span style=&quot;white-space: pre;&quot;&gt;&#x9;&lt;/span&gt;&lt;span style=&quot;white-space: pre;&quot;&gt;&#x9;&lt;span style=&quot;white-space: pre;&quot;&gt;&#x9;&lt;/span&gt;&lt;/span&gt;{&lt;span style=&quot;white-space: pre;&quot;&gt;&#x9;&lt;/span&gt;&lt;/div&gt;&lt;div&gt;&lt;span style=&quot;white-space: pre;&quot;&gt;&#x9;&lt;/span&gt;&lt;span style=&quot;white-space: pre;&quot;&gt;&#x9;&lt;/span&gt;&lt;span style=&quot;white-space: pre;&quot;&gt;&#x9;&lt;span style=&quot;white-space: pre;&quot;&gt;&#x9;&lt;/span&gt;&lt;/span&gt;field1: ${},&lt;br&gt;&lt;/div&gt;&lt;div&gt;&lt;span style=&quot;white-space: pre;&quot;&gt;&#x9;&lt;/span&gt;&lt;span style=&quot;white-space: pre;&quot;&gt;&#x9;&lt;/span&gt;&lt;span style=&quot;white-space: pre;&quot;&gt;&#x9;&lt;span style=&quot;white-space: pre;&quot;&gt;&#x9;&lt;/span&gt;&lt;/span&gt;&lt;span style=&quot;background-color: initial;&quot;&gt;field2: ${},&lt;/span&gt;&lt;/div&gt;&lt;div&gt;&lt;span style=&quot;background-color: initial; white-space: pre;&quot;&gt;&#x9;&lt;/span&gt;&lt;span style=&quot;background-color: initial; white-space: pre;&quot;&gt;&#x9;&lt;/span&gt;&lt;span style=&quot;background-color: initial; white-space: pre;&quot;&gt;&#x9;&lt;span style=&quot;white-space: pre;&quot;&gt;&#x9;&lt;/span&gt;&lt;/span&gt;&lt;span style=&quot;background-color: initial;&quot;&gt;field3: ${},&lt;/span&gt;&lt;/div&gt;&lt;div&gt;&lt;span style=&quot;background-color: initial;&quot;&gt;&lt;span style=&quot;white-space: pre;&quot;&gt;&#x9;&lt;/span&gt;&lt;span style=&quot;white-space: pre;&quot;&gt;&#x9;&lt;/span&gt;&lt;span style=&quot;white-space: pre;&quot;&gt;&#x9;&lt;span style=&quot;white-space: pre;&quot;&gt;&#x9;&lt;/span&gt;&lt;/span&gt;field4: ${}&lt;br&gt;&lt;/span&gt;&lt;/div&gt;&lt;div&gt;&lt;span style=&quot;background-color: initial;&quot;&gt;&lt;span style=&quot;white-space: pre;&quot;&gt;&lt;span style=&quot;white-space: pre;&quot;&gt;&#x9;&lt;/span&gt;&lt;span style=&quot;white-space: pre;&quot;&gt;&#x9;&lt;/span&gt;&lt;/span&gt;&lt;/span&gt;&lt;span style=&quot;background-color: initial; white-space: pre;&quot;&gt;&#x9;&lt;/span&gt;&lt;span style=&quot;background-color: initial;&quot;&gt;}&lt;/span&gt;&lt;/div&gt;&lt;/div&gt;&lt;div&gt;&lt;span style=&quot;white-space: pre;&quot;&gt;&#x9;&lt;/span&gt;&lt;span style=&quot;white-space: pre;&quot;&gt;&#x9;&lt;/span&gt;start_time:&lt;span style=&quot;background-color: initial;&quot;&gt;${}&lt;/span&gt;&lt;/div&gt;&lt;div&gt;&lt;span style=&quot;background-color: initial;&quot;&gt;&lt;span style=&quot;white-space: pre;&quot;&gt;&#x9;&lt;/span&gt;&lt;span style=&quot;white-space: pre;&quot;&gt;&#x9;&lt;/span&gt;modified_time: ${}&lt;/span&gt;&lt;/div&gt;&lt;div&gt;&lt;span style=&quot;white-space: pre;&quot;&gt;&#x9;&lt;/span&gt;&lt;span style=&quot;white-space: pre;&quot;&gt;&#x9;&lt;/span&gt;persona_Id:&lt;span style=&quot;background-color: initial;&quot;&gt;${}&lt;/span&gt;&lt;span style=&quot;background-color: initial; white-space: pre;&quot;&gt;&#x9;&lt;/span&gt;&lt;span style=&quot;background-color: initial; white-space: pre;&quot;&gt;&#x9;&lt;/span&gt;&lt;/div&gt;&lt;div&gt;&lt;span style=&quot;background-color: initial;&quot;&gt;&lt;span style=&quot;white-space: pre;&quot;&gt;&#x9;&lt;/span&gt;&lt;span style=&quot;white-space: pre;&quot;&gt;&#x9;&lt;/span&gt;priority: ${}&lt;/span&gt;&lt;/div&gt;&lt;div&gt;&lt;span style=&quot;white-space: pre;&quot;&gt;&#x9;&lt;span style=&quot;white-space: pre;&quot;&gt;&#x9;&lt;/span&gt;task_status: &lt;/span&gt;&lt;span style=&quot;background-color: initial;&quot;&gt;${Completed&lt;/span&gt;&lt;span style=&quot;white-space: pre; background-color: initial;&quot;&gt;}&lt;/span&gt;&lt;/div&gt;&lt;div style=&quot;&quot;&gt;&lt;span style=&quot;background-color: initial; white-space: pre;&quot;&gt;&#x9;&lt;span style=&quot;white-space: pre;&quot;&gt;&#x9;&lt;/span&gt;comment:&lt;/span&gt;&lt;span style=&quot;background-color: initial;&quot;&gt;${}&lt;/span&gt;&lt;/div&gt;&lt;div&gt;&lt;span style=&quot;white-space: pre;&quot;&gt;&#x9;&lt;/span&gt;}&lt;/div&gt;&lt;div&gt;&lt;br&gt;&lt;/div&gt;" style="text;html=1;align=left;verticalAlign=middle;whiteSpace=wrap;rounded=0;" vertex="1" parent="1">
          <mxGeometry x="3770" y="125" width="230" height="305" as="geometry" />
        </mxCell>
        <mxCell id="4whmI7BuCEZ9BgeUe7PW-126" value="&lt;font style=&quot;font-size: 16px;&quot;&gt;Time Elapsed&lt;/font&gt;" style="text;html=1;align=center;verticalAlign=middle;whiteSpace=wrap;rounded=0;" vertex="1" parent="1">
          <mxGeometry x="2380" y="885" width="60" height="30" as="geometry" />
        </mxCell>
        <mxCell id="4whmI7BuCEZ9BgeUe7PW-127" value="&lt;font style=&quot;font-size: 16px;&quot;&gt;Completed&lt;/font&gt;" style="text;html=1;align=center;verticalAlign=middle;whiteSpace=wrap;rounded=0;" vertex="1" parent="1">
          <mxGeometry x="2580" y="880" width="60" height="30" as="geometry" />
        </mxCell>
        <mxCell id="4whmI7BuCEZ9BgeUe7PW-128" value="&lt;font style=&quot;font-size: 16px;&quot;&gt;Time Elapsed&lt;/font&gt;" style="text;html=1;align=center;verticalAlign=middle;whiteSpace=wrap;rounded=0;" vertex="1" parent="1">
          <mxGeometry x="2390" y="555" width="60" height="30" as="geometry" />
        </mxCell>
        <mxCell id="4whmI7BuCEZ9BgeUe7PW-129" value="&lt;font style=&quot;font-size: 16px;&quot;&gt;Completed&lt;/font&gt;" style="text;html=1;align=center;verticalAlign=middle;whiteSpace=wrap;rounded=0;" vertex="1" parent="1">
          <mxGeometry x="2590" y="555" width="60" height="30" as="geometry" />
        </mxCell>
        <mxCell id="4whmI7BuCEZ9BgeUe7PW-130" value="Response&lt;div&gt;/status&lt;/div&gt;" style="text;html=1;align=center;verticalAlign=middle;whiteSpace=wrap;rounded=0;" vertex="1" parent="1">
          <mxGeometry x="2600" y="350" width="90" height="50" as="geometry" />
        </mxCell>
        <mxCell id="4whmI7BuCEZ9BgeUe7PW-131" value="Response&lt;div&gt;/status&lt;/div&gt;" style="text;html=1;align=center;verticalAlign=middle;whiteSpace=wrap;rounded=0;" vertex="1" parent="1">
          <mxGeometry x="2350" y="350" width="90" height="50" as="geometry" />
        </mxCell>
        <mxCell id="4whmI7BuCEZ9BgeUe7PW-132" value="Response&lt;div&gt;/status&lt;/div&gt;" style="text;html=1;align=center;verticalAlign=middle;whiteSpace=wrap;rounded=0;" vertex="1" parent="1">
          <mxGeometry x="2570" y="1085" width="90" height="50" as="geometry" />
        </mxCell>
        <mxCell id="4whmI7BuCEZ9BgeUe7PW-133" value="Response&lt;div&gt;/status&lt;/div&gt;" style="text;html=1;align=center;verticalAlign=middle;whiteSpace=wrap;rounded=0;" vertex="1" parent="1">
          <mxGeometry x="2320" y="1085" width="90" height="50" as="geometry" />
        </mxCell>
        <mxCell id="4whmI7BuCEZ9BgeUe7PW-134" value="&lt;b&gt;&lt;font style=&quot;font-size: 19px;&quot;&gt;/reg-apprvls&lt;/font&gt;&lt;/b&gt;&lt;div&gt;&lt;br&gt;&lt;/div&gt;&lt;div&gt;&lt;span style=&quot;background-color: initial;&quot;&gt;registered&lt;/span&gt;-Id: ${}&lt;/div&gt;&lt;div&gt;requested_By:&lt;span style=&quot;background-color: initial;&quot;&gt;${}&lt;/span&gt;&lt;br&gt;&lt;/div&gt;&lt;div&gt;&lt;div&gt;type_Id:&amp;nbsp;&lt;span style=&quot;background-color: initial;&quot;&gt;${&lt;/span&gt;&lt;span style=&quot;background-color: initial;&quot;&gt;Generic/Form}&lt;/span&gt;&lt;/div&gt;&lt;/div&gt;&lt;div&gt;req_apprvl_details:&lt;/div&gt;&lt;div&gt;&lt;span style=&quot;white-space: pre;&quot;&gt;&#x9;&lt;/span&gt;{&lt;/div&gt;&lt;div style=&quot;&quot;&gt;&lt;span style=&quot;white-space: pre;&quot;&gt;&lt;span style=&quot;white-space: pre;&quot;&gt;&#x9;&lt;span style=&quot;white-space: pre;&quot;&gt;&#x9;&lt;/span&gt;&lt;/span&gt;&lt;/span&gt;&lt;span style=&quot;background-color: initial;&quot;&gt;application_Id: ${ISGS}&lt;/span&gt;&lt;/div&gt;&lt;div&gt;&lt;span style=&quot;white-space: pre;&quot;&gt;&#x9;&lt;/span&gt;&lt;span style=&quot;white-space: pre;&quot;&gt;&#x9;&lt;/span&gt;title:${}&lt;/div&gt;&lt;div&gt;&lt;span style=&quot;white-space: pre;&quot;&gt;&#x9;&lt;/span&gt;&lt;span style=&quot;white-space: pre;&quot;&gt;&#x9;&lt;/span&gt;start_time:&lt;span style=&quot;background-color: initial;&quot;&gt;${}&lt;/span&gt;&lt;/div&gt;&lt;div&gt;&lt;span style=&quot;background-color: initial;&quot;&gt;&lt;span style=&quot;white-space: pre;&quot;&gt;&#x9;&lt;/span&gt;&lt;span style=&quot;white-space: pre;&quot;&gt;&#x9;&lt;/span&gt;due_time: ${}&lt;br&gt;&lt;/span&gt;&lt;/div&gt;&lt;div&gt;&lt;span style=&quot;white-space: pre;&quot;&gt;&#x9;&lt;/span&gt;&lt;span style=&quot;white-space: pre;&quot;&gt;&#x9;&lt;/span&gt;&lt;span style=&quot;background-color: initial;&quot;&gt;persona_Id:&lt;/span&gt;&lt;span style=&quot;background-color: initial;&quot;&gt;${}&lt;/span&gt;&lt;/div&gt;&lt;div&gt;&lt;span style=&quot;background-color: initial;&quot;&gt;&lt;span style=&quot;white-space: pre;&quot;&gt;&#x9;&lt;/span&gt;&lt;span style=&quot;white-space: pre;&quot;&gt;&#x9;&lt;/span&gt;apprvl_status: ${pending}&lt;br&gt;&lt;/span&gt;&lt;/div&gt;&lt;div&gt;&lt;span style=&quot;white-space: pre;&quot;&gt;&#x9;&lt;/span&gt;}&lt;/div&gt;&lt;div&gt;&lt;br&gt;&lt;/div&gt;" style="text;html=1;align=left;verticalAlign=middle;whiteSpace=wrap;rounded=0;" vertex="1" parent="1">
          <mxGeometry x="-2970" y="-580" width="230" height="295" as="geometry" />
        </mxCell>
      </root>
    </mxGraphModel>
  </diagram>
</mxfile>
